<svg width="129" height="106" viewBox="0 0 129 106" fill="none" xmlns="http://www.w3.org/2000/svg">
<rect x="4.54297" y="9.08569" width="119.629" height="54.5144" fill="#3BB493"/>
<path d="M128.791 0V73.2535H79.1173V75.4495H89.2871V78.1202H39.5038V75.4495H49.6735V73.2535H0V0H128.791ZM126.12 70.5827V67.4995H123.479V69.4818H120.808V67.4995H2.67078V70.5827H126.12ZM126.12 64.8287V7.53753H2.67078V64.8287H126.12ZM126.12 4.86675V2.67078H2.67078V4.86675H126.12ZM76.4466 75.4495V73.2535H52.3443V75.4495H76.4466Z" fill="#3BB493"/>
<path d="M126.12 67.4995V70.5828H2.67065V67.4995H120.808V69.4818H123.479V67.4995H126.12Z" fill="#3BB493"/>
<path d="M126.12 2.67065H2.67065V4.86663H126.12V2.67065Z" fill="#3BB493"/>
<path d="M113.191 84.521V106H15.5977V84.521H113.191ZM110.52 103.329V101.353H18.2684V103.329H110.52ZM110.52 98.6821V87.1918H18.2684V98.6821H110.52Z" fill="#24886D"/>
<path d="M110.52 101.353H18.2683V103.329H110.52V101.353Z" fill="#3BB493"/>
<path d="M110.52 87.1919V98.6822H18.2683V87.1919H110.52ZM106.876 96.7058V94.035H103.612V96.7058H106.876ZM106.876 91.839V89.1683H103.76V91.839H106.876ZM100.709 91.839V89.1683H94.3024V91.839H100.709ZM100.665 96.7058V94.035H94.1777V96.7058H100.665ZM91.2488 91.839V89.1683H84.8419V91.839H91.2488ZM91.228 96.7058V94.035H84.741V96.7058H91.228ZM81.7913 96.7058V94.035H75.3043V96.7058H81.7913ZM81.7883 91.839V89.1683H75.3814V91.839H81.7883ZM72.3575 96.7058V94.035H65.8675V96.7058H72.3575ZM72.3278 91.839V89.1683H65.9209V91.839H72.3278ZM62.9207 96.7058V94.035H56.4337V96.7058H62.9207ZM62.8673 91.839V89.1683H56.4604V91.839H62.8673ZM53.484 96.7058V94.035H46.997V96.7058H53.484ZM53.4098 91.839V89.1683H46.9999V91.839H53.4098ZM44.0472 96.7058V94.035H37.5602V96.7058H44.0472ZM43.9493 91.839V89.1683H37.5395V91.839H43.9493ZM34.6135 96.7058V94.035H28.1264V96.7058H34.6135ZM34.4888 91.839V89.1683H28.079V91.839H34.4888ZM25.1767 96.7058V94.035H21.9124V96.7058H25.1767ZM25.0283 91.839V89.1683H21.9124V91.839H25.0283Z" fill="#3BB493"/>
<path d="M106.876 94.0349H103.611V96.7057H106.876V94.0349Z" fill="#24886D"/>
<path d="M106.875 89.1683H103.76V91.8391H106.875V89.1683Z" fill="#24886D"/>
<path d="M100.709 89.1683H94.3018V91.8391H100.709V89.1683Z" fill="#24886D"/>
<path d="M100.665 94.0349H94.1775V96.7057H100.665V94.0349Z" fill="#24886D"/>
<path d="M91.2489 89.1683H84.842V91.8391H91.2489V89.1683Z" fill="#24886D"/>
<path d="M91.228 94.0349H84.741V96.7057H91.228V94.0349Z" fill="#24886D"/>
<path d="M81.791 94.0349H75.304V96.7057H81.791V94.0349Z" fill="#24886D"/>
<path d="M81.7882 89.1683H75.3813V91.8391H81.7882V89.1683Z" fill="#24886D"/>
<path d="M76.4465 73.2535H52.3442V75.4495H76.4465V73.2535Z" fill="#3BB493"/>
<path d="M72.3574 94.0349H65.8674V96.7057H72.3574V94.0349Z" fill="#24886D"/>
<path d="M72.3273 89.1683H65.9204V91.8391H72.3273V89.1683Z" fill="#24886D"/>
<path d="M62.9206 94.0349H56.4336V96.7057H62.9206V94.0349Z" fill="#24886D"/>
<path d="M62.8671 89.1683H56.4602V91.8391H62.8671V89.1683Z" fill="#24886D"/>
<path d="M53.4838 94.0349H46.9968V96.7057H53.4838V94.0349Z" fill="#24886D"/>
<path d="M53.4094 89.1683H46.9995V91.8391H53.4094V89.1683Z" fill="#24886D"/>
<path d="M44.0473 94.0349H37.5603V96.7057H44.0473V94.0349Z" fill="#24886D"/>
<path d="M43.9494 89.1683H37.5396V91.8391H43.9494V89.1683Z" fill="#24886D"/>
<path d="M34.613 94.0349H28.126V96.7057H34.613V94.0349Z" fill="#24886D"/>
<path d="M34.489 89.1683H28.0791V91.8391H34.489V89.1683Z" fill="#24886D"/>
<path d="M25.1764 94.0349H21.9121V96.7057H25.1764V94.0349Z" fill="#24886D"/>
<path d="M25.028 89.1683H21.9121V91.8391H25.028V89.1683Z" fill="#24886D"/>
<path fill-rule="evenodd" clip-rule="evenodd" d="M81.4061 24.3039C80.2602 24.5327 79.1509 24.9171 78.1091 25.4463L78.2948 28.3215C77.1727 29.0607 76.2089 30.0156 75.4593 31.1307L72.5854 30.9293C72.0527 31.9651 71.6591 33.0747 71.4242 34.2176L73.7868 35.8648C73.6682 37.2015 73.8123 38.5549 74.2193 39.8338L72.2685 41.953C72.7444 43.0188 73.3645 44.0142 74.1115 44.9111L76.8764 44.09C77.8458 45.0208 78.9941 45.7462 80.2487 46.2295L80.6884 49.0775C81.8204 49.3674 82.9822 49.504 84.1495 49.4784L85.233 46.8088C86.5649 46.6289 87.8475 46.1852 89.0059 45.5038L91.5076 46.9325C92.4386 46.2325 93.2719 45.4061 93.9797 44.4787L92.5686 41.9673C93.2576 40.8135 93.7097 39.5339 93.8984 38.2034L96.5748 37.1403C96.6112 35.9736 96.4844 34.8052 96.2001 33.6742L93.3544 33.2133C92.8811 31.955 92.1637 30.8027 91.2434 29.8228L92.0823 27.0711C91.1907 26.3161 90.1995 25.6874 89.1365 25.2027L87.0041 27.1392C85.726 26.7247 84.3782 26.5685 83.0391 26.6798L81.4061 24.3039ZM82.5095 32.834C83.0302 32.6424 83.5838 32.5566 84.138 32.5816C84.6922 32.6066 85.2359 32.7419 85.7372 32.9796C86.2385 33.2173 86.6873 33.5526 87.0574 33.9659C87.4275 34.3792 87.7115 34.8622 87.8926 35.3865C88.0738 35.9109 88.1486 36.4661 88.1125 37.0197C88.0765 37.5733 87.9304 38.1142 87.6827 38.6106C87.4351 39.1071 87.091 39.5492 86.6704 39.911C86.2498 40.2728 85.7613 40.5471 85.2335 40.7178C84.1875 41.0788 83.0409 41.0096 82.046 40.5253C81.0511 40.041 80.2893 39.1813 79.9282 38.1354C79.5671 37.0894 79.6363 35.9429 80.1206 34.9479C80.6049 33.953 81.4646 33.1912 82.5106 32.8301L82.5095 32.834Z" fill="#FEFEFE"/>
<path fill-rule="evenodd" clip-rule="evenodd" d="M65.6907 25.71H35.5657C34.567 25.71 33.6092 26.1067 32.903 26.8129C32.1968 27.5191 31.8 28.4769 31.8 29.4756V44.5381C31.8 45.5368 32.1968 46.4946 32.903 47.2008C33.6092 47.907 34.567 48.3037 35.5657 48.3037H65.6907C66.6894 48.3037 67.6472 47.907 68.3534 47.2008C69.0596 46.4946 69.4564 45.5368 69.4564 44.5381V29.4756C69.4564 28.4769 69.0596 27.5191 68.3534 26.8129C67.6472 26.1067 66.6894 25.71 65.6907 25.71ZM45.5258 42.2787L44.9798 40.2641H41.5154L40.9694 42.2787H37.7686L41.2141 31.4902H45.1492L48.7454 42.2787H45.5258ZM57.4628 36.3667C57.3274 36.8129 57.096 37.2242 56.785 37.5717C56.4313 37.9382 56.0004 38.2212 55.5235 38.4001C54.9212 38.6227 54.2827 38.7312 53.6407 38.7202H52.8123V42.2787H49.8751V31.5279H53.6407C54.7305 31.4492 55.8124 31.7631 56.6909 32.4128C57.0444 32.7306 57.3213 33.1245 57.5006 33.5647C57.68 34.005 57.7572 34.4802 57.7264 34.9546C57.7157 35.4365 57.6267 35.9134 57.4628 36.3667ZM62.3205 42.2787H59.4021V31.5279H62.3205V42.2787ZM43.9442 36.1219L44.3961 37.873H42.1179L42.5698 36.1219C42.5698 35.8772 42.7204 35.5947 42.7957 35.237C42.871 34.8793 42.9651 34.5215 43.0405 34.1638C43.1191 33.8661 43.182 33.5644 43.2287 33.2601C43.2287 33.5048 43.3605 33.8061 43.4358 34.2015L43.7183 35.2935L43.9442 36.1219ZM54.4691 34.2391C54.5727 34.3458 54.653 34.4729 54.7048 34.6123C54.7567 34.7516 54.779 34.9003 54.7704 35.0487C54.7808 35.327 54.7088 35.6021 54.5633 35.8395C54.4394 36.0256 54.2622 36.17 54.0549 36.2537C53.8346 36.3463 53.5972 36.3912 53.3583 36.3855H52.7746V33.8814H53.5277C53.6862 33.8741 53.8444 33.8987 53.9932 33.9537C54.142 34.0087 54.2782 34.0929 54.3938 34.2015L54.4691 34.2391Z" fill="#FEFEFE"/>
</svg>
