<svg width="129" height="106" viewBox="0 0 129 106" fill="none" xmlns="http://www.w3.org/2000/svg">
<rect x="4.54297" y="9.08569" width="119.629" height="54.5144" fill="#3BB493"/>
<path d="M128.791 0V73.2535H79.1173V75.4495H89.2871V78.1202H39.5038V75.4495H49.6735V73.2535H0V0H128.791ZM126.12 70.5827V67.4995H123.479V69.4818H120.808V67.4995H2.67078V70.5827H126.12ZM126.12 64.8287V7.53753H2.67078V64.8287H126.12ZM126.12 4.86675V2.67078H2.67078V4.86675H126.12ZM76.4466 75.4495V73.2535H52.3443V75.4495H76.4466Z" fill="#3BB493"/>
<path d="M126.12 67.4995V70.5828H2.67065V67.4995H120.808V69.4818H123.479V67.4995H126.12Z" fill="#3BB493"/>
<path d="M126.12 2.67065H2.67065V4.86663H126.12V2.67065Z" fill="#3BB493"/>
<path d="M113.191 84.521V106H15.5977V84.521H113.191ZM110.52 103.329V101.353H18.2684V103.329H110.52ZM110.52 98.6821V87.1918H18.2684V98.6821H110.52Z" fill="#24886D"/>
<path d="M110.52 101.353H18.2683V103.329H110.52V101.353Z" fill="#3BB493"/>
<path d="M110.52 87.1919V98.6822H18.2683V87.1919H110.52ZM106.876 96.7058V94.035H103.612V96.7058H106.876ZM106.876 91.839V89.1683H103.76V91.839H106.876ZM100.709 91.839V89.1683H94.3024V91.839H100.709ZM100.665 96.7058V94.035H94.1777V96.7058H100.665ZM91.2488 91.839V89.1683H84.8419V91.839H91.2488ZM91.228 96.7058V94.035H84.741V96.7058H91.228ZM81.7913 96.7058V94.035H75.3043V96.7058H81.7913ZM81.7883 91.839V89.1683H75.3814V91.839H81.7883ZM72.3575 96.7058V94.035H65.8675V96.7058H72.3575ZM72.3278 91.839V89.1683H65.9209V91.839H72.3278ZM62.9207 96.7058V94.035H56.4337V96.7058H62.9207ZM62.8673 91.839V89.1683H56.4604V91.839H62.8673ZM53.484 96.7058V94.035H46.997V96.7058H53.484ZM53.4098 91.839V89.1683H46.9999V91.839H53.4098ZM44.0472 96.7058V94.035H37.5602V96.7058H44.0472ZM43.9493 91.839V89.1683H37.5395V91.839H43.9493ZM34.6135 96.7058V94.035H28.1264V96.7058H34.6135ZM34.4888 91.839V89.1683H28.079V91.839H34.4888ZM25.1767 96.7058V94.035H21.9124V96.7058H25.1767ZM25.0283 91.839V89.1683H21.9124V91.839H25.0283Z" fill="#3BB493"/>
<path d="M106.876 94.0349H103.611V96.7057H106.876V94.0349Z" fill="#24886D"/>
<path d="M106.875 89.1683H103.76V91.8391H106.875V89.1683Z" fill="#24886D"/>
<path d="M100.709 89.1683H94.3018V91.8391H100.709V89.1683Z" fill="#24886D"/>
<path d="M100.665 94.0349H94.1775V96.7057H100.665V94.0349Z" fill="#24886D"/>
<path d="M91.2489 89.1683H84.842V91.8391H91.2489V89.1683Z" fill="#24886D"/>
<path d="M91.228 94.0349H84.741V96.7057H91.228V94.0349Z" fill="#24886D"/>
<path d="M81.791 94.0349H75.304V96.7057H81.791V94.0349Z" fill="#24886D"/>
<path d="M81.7882 89.1683H75.3813V91.8391H81.7882V89.1683Z" fill="#24886D"/>
<path d="M76.4465 73.2535H52.3442V75.4495H76.4465V73.2535Z" fill="#3BB493"/>
<path d="M72.3574 94.0349H65.8674V96.7057H72.3574V94.0349Z" fill="#24886D"/>
<path d="M72.3273 89.1683H65.9204V91.8391H72.3273V89.1683Z" fill="#24886D"/>
<path d="M62.9206 94.0349H56.4336V96.7057H62.9206V94.0349Z" fill="#24886D"/>
<path d="M62.8671 89.1683H56.4602V91.8391H62.8671V89.1683Z" fill="#24886D"/>
<path d="M53.4838 94.0349H46.9968V96.7057H53.4838V94.0349Z" fill="#24886D"/>
<path d="M53.4094 89.1683H46.9995V91.8391H53.4094V89.1683Z" fill="#24886D"/>
<path d="M44.0473 94.0349H37.5603V96.7057H44.0473V94.0349Z" fill="#24886D"/>
<path d="M43.9494 89.1683H37.5396V91.8391H43.9494V89.1683Z" fill="#24886D"/>
<path d="M34.613 94.0349H28.126V96.7057H34.613V94.0349Z" fill="#24886D"/>
<path d="M34.489 89.1683H28.0791V91.8391H34.489V89.1683Z" fill="#24886D"/>
<path d="M25.1764 94.0349H21.9121V96.7057H25.1764V94.0349Z" fill="#24886D"/>
<path d="M25.028 89.1683H21.9121V91.8391H25.028V89.1683Z" fill="#24886D"/>
<path d="M85.0061 15.1429H43.7084C42.155 15.1429 40.8857 16.399 40.8857 17.9362V53.2355C40.8857 54.7727 42.155 56.0287 43.7084 56.0287H85.0061C86.5595 56.0287 87.8287 54.7727 87.8287 53.2355V17.9362C87.8287 16.399 86.5595 15.1429 85.0061 15.1429ZM77.9589 16.9988C78.9819 16.9988 79.8344 17.8424 79.8344 18.8547C79.8344 19.8858 78.9819 20.7106 77.9589 20.7106C76.936 20.7106 76.0835 19.867 76.0835 18.8547C76.0835 17.8424 76.936 16.9988 77.9589 16.9988ZM72.8062 16.9988C73.8292 16.9988 74.6816 17.8424 74.6816 18.8547C74.6816 19.8858 73.8292 20.7106 72.8062 20.7106C71.7832 20.7106 70.9307 19.867 70.9307 18.8547C70.9307 17.8424 71.7643 16.9988 72.8062 16.9988ZM85.0061 53.5542H43.7084V22.5665H85.0061V53.5542ZM83.1306 20.7106C82.1076 20.7106 81.2552 19.867 81.2552 18.8547C81.2552 17.8424 82.1076 16.9988 83.1306 16.9988C84.1536 16.9988 85.0061 17.8424 85.0061 18.8547C85.0061 19.8858 84.1536 20.7106 83.1306 20.7106ZM58.2952 25.4534H72.7115V28.1529H58.2952V25.4534ZM63.9783 31.621H82.2213V34.3017H63.9783V31.621ZM63.9783 36.9824H82.2213V39.6632H63.9783V36.9824ZM63.9783 42.4189H82.2213V45.0996H63.9783V42.4189ZM46.2847 47.7803H82.2402V50.4611H46.2847V47.7803ZM46.2847 31.621H59.1287V44.8747H46.2847V31.621Z" fill="#FEFEFE"/>
</svg>
