<svg width="35" height="35" viewBox="0 0 35 35" fill="none" xmlns="http://www.w3.org/2000/svg">
<rect width="35" height="35" rx="5" fill="#3BB493"/>
<g clip-path="url(#clip0_120_2543)">
<path d="M3 28.3896C3 30.3838 4.61645 32 6.61036 32H27.3895C29.3838 32 31 30.3835 31 28.3896V7.61047C31 5.61623 29.3835 4 27.3896 4H6.61047C4.61623 4 3 5.61645 3 7.61036V28.3895V28.3896Z" fill="white"/>
<path d="M14.6111 16.3854V12.4202H18.1014C18.4339 12.4202 18.7544 12.4479 19.063 12.5034C19.3717 12.5587 19.6448 12.6576 19.8822 12.8001C20.1196 12.9426 20.3096 13.1405 20.4521 13.3937C20.5945 13.647 20.6658 13.9715 20.6658 14.3671C20.6658 15.0795 20.4521 15.594 20.0246 15.9105C19.5973 16.2271 19.0512 16.3854 18.3863 16.3854H14.6111ZM10.8833 9.52344V26.4766H19.0987C19.8585 26.4766 20.5985 26.3816 21.3188 26.1916C22.039 26.0017 22.6801 25.7089 23.242 25.3131C23.8039 24.9174 24.2511 24.4069 24.5835 23.7817C24.916 23.1564 25.0821 22.4163 25.0821 21.5616C25.0821 20.501 24.8249 19.5948 24.3105 18.843C23.796 18.091 23.0164 17.5647 21.9716 17.2639C22.7315 16.8999 23.3053 16.4329 23.6932 15.863C24.0809 15.2932 24.2748 14.5809 24.2748 13.7261C24.2748 12.9346 24.1443 12.2698 23.8831 11.7316C23.6219 11.1935 23.2538 10.7621 22.7789 10.4376C22.3041 10.1131 21.7343 9.87956 21.0694 9.73716C20.4046 9.59464 19.6685 9.52344 18.8612 9.52344H10.8833ZM14.6111 23.5798V18.926H18.6712C19.4785 18.926 20.1276 19.1119 20.6183 19.484C21.109 19.856 21.3544 20.4772 21.3544 21.3479C21.3544 21.7912 21.2792 22.1552 21.1288 22.4401C20.9784 22.725 20.7766 22.9506 20.5233 23.1168C20.2701 23.283 19.9772 23.4017 19.6448 23.473C19.3123 23.5441 18.9641 23.5798 18.6 23.5798H14.6111Z" fill="#3BB493"/>
</g>
<defs>
<clipPath id="clip0_120_2543">
<rect x="3" y="4" width="28" height="28" rx="5" fill="white"/>
</clipPath>
</defs>
</svg>
