<svg width="35" height="35" viewBox="0 0 35 35" fill="none" xmlns="http://www.w3.org/2000/svg">
<rect width="35" height="35" rx="5" fill="#3BB493"/>
<path d="M8.34867 27.6509L6.31323 4.8125H28.6867L26.6486 27.6473L17.4864 30.1875L8.34867 27.6509Z" fill="white"/>
<path d="M17.5 28.2463L24.9041 26.1937L26.6459 6.6803H17.5V28.2463Z" fill="white"/>
<path d="M17.5 14.9544H21.2066L21.4621 12.0861H17.5V9.28485H17.51H24.5234L24.4564 10.0361L23.7685 17.7556H17.5V14.9544Z" fill="#3BB493"/>
<path d="M17.5172 22.2288L17.5046 22.2324L14.3852 21.3896L14.1859 19.1557H12.6697H11.3738L11.7662 23.5537L17.5037 25.1469L17.5172 25.1433V22.2288Z" fill="#3BB493"/>
<path d="M20.9683 17.6368L20.6312 21.3878L17.5073 22.2306V25.1451L23.2493 23.5537L23.2919 23.0807L23.7786 17.6368H20.9683Z" fill="#3BB493"/>
<path d="M17.51 9.28485V11.0249V12.0788V12.0861H10.753H10.744L10.6878 11.4562L10.56 10.0361L10.4929 9.28485H17.51Z" fill="#3BB493"/>
<path d="M17.4999 14.9543V16.6943V17.7483V17.7556H14.4286H14.4196L14.3634 17.1257L14.2365 15.7056L14.1694 14.9543H17.4999Z" fill="#3BB493"/>
</svg>
