<svg width="35" height="35" viewBox="0 0 35 35" fill="none" xmlns="http://www.w3.org/2000/svg">
<rect width="35" height="35" rx="5" fill="#3BB493"/>
<g clip-path="url(#clip0_120_2444)">
<path d="M17.5 4V6.18182H28.8182V28.8182H17.5V31H31V4H17.5Z" fill="white"/>
<path d="M6.18182 28.8182V6.18182H17.5V4H4V31H17.5V28.8182H6.18182Z" fill="white"/>
<path d="M17.478 26.0909L23.6855 24.3514L25.06 8.90906H9.9397L11.3144 24.3514L17.478 26.0909ZM22.2463 12.0665L22.0745 13.9459H14.8368L14.9976 15.8894H21.9136L21.3762 21.7312L17.5212 22.7939V22.8048H17.478L13.5908 21.7312L13.3546 18.7456H15.2339L15.3735 20.2491L17.478 20.818L19.5935 20.2491L19.8303 17.8009H13.2581L12.7535 12.0665H22.2463Z" fill="white"/>
</g>
<defs>
<clipPath id="clip0_120_2444">
<rect x="4" y="4" width="27" height="27" fill="white"/>
</clipPath>
</defs>
</svg>
