<svg width="35" height="35" viewBox="0 0 35 35" fill="none" xmlns="http://www.w3.org/2000/svg">
<path d="M30 0H5C2.23858 0 0 2.23858 0 5V30C0 32.7614 2.23858 35 5 35H30C32.7614 35 35 32.7614 35 30V5C35 2.23858 32.7614 0 30 0Z" fill="#3BB493"/>
<path d="M17.5 16.0416C17.5 22.9675 17.5 26.8564 17.5 27.7083C17.5 28.9861 16.7375 30.625 14.5833 30.625C11.1047 30.625 10.9375 27.7083 10.9375 27.7083M30.3187 19.7109C29.4436 18.2369 28.2835 17.5 26.8385 17.5C24.5822 17.5 23.3333 18.9583 23.3333 20.4166C23.3333 21.875 24.0625 23.3333 26.9914 24.0625C28.8553 24.5265 30.625 25.5208 30.625 27.7083C30.625 29.8958 28.7066 30.625 26.9792 30.625C24.7715 30.625 23.3132 29.6527 22.6042 27.7083" stroke="white" stroke-width="2"/>
</svg>
