<svg width="35" height="35" viewBox="0 0 35 35" fill="none" xmlns="http://www.w3.org/2000/svg">
<rect width="35" height="35" rx="5" fill="#3BB493"/>
<g clip-path="url(#clip0_120_2580)">
<path d="M31.5605 10.3234C31.5706 10.3607 31.5758 10.3991 31.5758 10.4377V16.4373C31.5758 16.5941 31.492 16.7389 31.356 16.8168L26.3204 19.716V25.4625C26.3204 25.6189 26.2373 25.7633 26.1017 25.842L15.5903 31.893C15.5662 31.9067 15.54 31.9155 15.5137 31.9248C15.5039 31.928 15.4946 31.9341 15.4842 31.9368C15.4107 31.9561 15.3335 31.9561 15.26 31.9368C15.248 31.9335 15.237 31.927 15.2255 31.9226C15.2015 31.9138 15.1763 31.9062 15.1534 31.893L4.64414 25.842C4.50825 25.7639 4.42432 25.6192 4.42432 25.4625V7.46357C4.42432 7.4242 4.42978 7.38593 4.43963 7.34874C4.44291 7.33617 4.45056 7.32468 4.45494 7.31211C4.46314 7.28914 4.4708 7.26563 4.48283 7.2443C4.49103 7.23008 4.50306 7.2186 4.5129 7.20548C4.52548 7.18798 4.53696 7.16993 4.55172 7.15462C4.5643 7.14205 4.58071 7.13275 4.59492 7.12181C4.61078 7.10869 4.625 7.09447 4.64304 7.08408H4.64359L9.89847 4.05856C10.0339 3.98064 10.2005 3.98064 10.3359 4.05856L15.5908 7.08408H15.5919C15.6094 7.09502 15.6242 7.10869 15.64 7.12127C15.6542 7.1322 15.6701 7.14205 15.6827 7.15408C15.698 7.16993 15.7089 7.18798 15.722 7.20548C15.7313 7.2186 15.7439 7.23008 15.7516 7.2443C15.7642 7.26617 15.7713 7.28914 15.78 7.31211C15.7844 7.32468 15.792 7.33617 15.7953 7.34929C15.8054 7.38655 15.8105 7.42497 15.8106 7.46357V18.7055L20.1895 16.1842V10.4371C20.1895 10.3989 20.195 10.36 20.2048 10.3234C20.2087 10.3103 20.2158 10.2988 20.2201 10.2862C20.2289 10.2633 20.2365 10.2397 20.2486 10.2184C20.2568 10.2042 20.2688 10.1927 20.2781 10.1796C20.2912 10.1621 20.3022 10.1441 20.3175 10.1287C20.33 10.1162 20.3459 10.1069 20.3601 10.0959C20.3765 10.0828 20.3907 10.0686 20.4082 10.0582H20.4088L25.6642 7.03268C25.7996 6.95465 25.9663 6.95465 26.1017 7.03268L31.3566 10.0582C31.3751 10.0691 31.3894 10.0828 31.4058 10.0954C31.4194 10.1063 31.4353 10.1162 31.4479 10.1282C31.4632 10.1441 31.4741 10.1621 31.4872 10.1796C31.4971 10.1927 31.5091 10.2042 31.5168 10.2184C31.5294 10.2397 31.5365 10.2633 31.5452 10.2862C31.5501 10.2988 31.5572 10.3103 31.5605 10.3234ZM30.6998 16.1842V11.195L28.8609 12.2537L26.3204 13.7164V18.7055L30.7004 16.1842H30.6998ZM25.445 25.2093V20.2169L22.946 21.6441L15.8101 25.7168V30.7562L25.445 25.2093ZM5.30031 8.22091V25.2093L14.9341 30.7557V25.7173L9.90121 22.869L9.89957 22.8679L9.89738 22.8668C9.88043 22.8569 9.86621 22.8427 9.85035 22.8307C9.83668 22.8198 9.82083 22.811 9.8088 22.799L9.8077 22.7973C9.79349 22.7837 9.78364 22.7667 9.77161 22.7514C9.76068 22.7366 9.74755 22.7241 9.7388 22.7088L9.73826 22.7071C9.72841 22.6907 9.7224 22.671 9.71529 22.6524C9.70818 22.636 9.69889 22.6207 9.69451 22.6032V22.6027C9.68904 22.5819 9.68795 22.56 9.68576 22.5387C9.68358 22.5223 9.6792 22.5059 9.6792 22.4895V22.4884V10.7423L7.13925 9.279L5.30031 8.22146V8.22091ZM10.1177 4.94331L5.7394 7.46357L10.1167 9.98384L14.4944 7.46303L10.1167 4.94331H10.1177ZM12.3947 20.6719L14.9346 19.2097V8.22091L13.0957 9.27954L10.5552 10.7423V21.7311L12.3947 20.6719ZM25.8829 7.91743L21.5052 10.4377L25.8829 12.958L30.2602 10.4371L25.8829 7.91743ZM25.445 13.7164L22.9045 12.2537L21.0655 11.195V16.1842L23.6055 17.6463L25.445 18.7055V13.7164ZM15.3715 24.9594L21.7928 21.2936L25.0026 19.4618L20.6281 16.9431L15.5914 19.8429L11.0009 22.4857L15.3715 24.9594Z" fill="white"/>
</g>
<defs>
<clipPath id="clip0_120_2580">
<rect x="4" y="4" width="28" height="28" rx="5" fill="white"/>
</clipPath>
</defs>
</svg>
