<svg width="129" height="106" viewBox="0 0 129 106" fill="none" xmlns="http://www.w3.org/2000/svg">
<path d="M128.791 0V73.2535H79.1173V75.4495H89.2871V78.1202H39.5038V75.4495H49.6735V73.2535H0V0H128.791ZM126.12 70.5827V67.4995H123.479V69.4818H120.808V67.4995H2.67078V70.5827H126.12ZM126.12 64.8287V7.53753H2.67078V64.8287H126.12ZM126.12 4.86675V2.67078H2.67078V4.86675H126.12ZM76.4466 75.4495V73.2535H52.3443V75.4495H76.4466Z" fill="#3BB493"/>
<path d="M126.12 67.4995V70.5828H2.67065V67.4995H120.808V69.4818H123.479V67.4995H126.12Z" fill="#3BB493"/>
<path d="M126.12 2.67065H2.67065V4.86663H126.12V2.67065Z" fill="#3BB493"/>
<path d="M113.191 84.521V106H15.5977V84.521H113.191ZM110.52 103.329V101.353H18.2684V103.329H110.52ZM110.52 98.6821V87.1918H18.2684V98.6821H110.52Z" fill="#24886D"/>
<path d="M110.52 101.353H18.2683V103.329H110.52V101.353Z" fill="#3BB493"/>
<path d="M110.52 87.1919V98.6822H18.2683V87.1919H110.52ZM106.876 96.7058V94.035H103.612V96.7058H106.876ZM106.876 91.839V89.1683H103.76V91.839H106.876ZM100.709 91.839V89.1683H94.3024V91.839H100.709ZM100.665 96.7058V94.035H94.1777V96.7058H100.665ZM91.2488 91.839V89.1683H84.8419V91.839H91.2488ZM91.228 96.7058V94.035H84.741V96.7058H91.228ZM81.7913 96.7058V94.035H75.3043V96.7058H81.7913ZM81.7883 91.839V89.1683H75.3814V91.839H81.7883ZM72.3575 96.7058V94.035H65.8675V96.7058H72.3575ZM72.3278 91.839V89.1683H65.9209V91.839H72.3278ZM62.9207 96.7058V94.035H56.4337V96.7058H62.9207ZM62.8673 91.839V89.1683H56.4604V91.839H62.8673ZM53.484 96.7058V94.035H46.997V96.7058H53.484ZM53.4098 91.839V89.1683H46.9999V91.839H53.4098ZM44.0472 96.7058V94.035H37.5602V96.7058H44.0472ZM43.9493 91.839V89.1683H37.5395V91.839H43.9493ZM34.6135 96.7058V94.035H28.1264V96.7058H34.6135ZM34.4888 91.839V89.1683H28.079V91.839H34.4888ZM25.1767 96.7058V94.035H21.9124V96.7058H25.1767ZM25.0283 91.839V89.1683H21.9124V91.839H25.0283Z" fill="#3BB493"/>
<path d="M106.876 94.0349H103.611V96.7057H106.876V94.0349Z" fill="#24886D"/>
<path d="M106.875 89.1683H103.76V91.8391H106.875V89.1683Z" fill="#24886D"/>
<path d="M100.709 89.1683H94.3018V91.8391H100.709V89.1683Z" fill="#24886D"/>
<path d="M100.665 94.0349H94.1775V96.7057H100.665V94.0349Z" fill="#24886D"/>
<path d="M91.2489 89.1683H84.842V91.8391H91.2489V89.1683Z" fill="#24886D"/>
<path d="M91.228 94.0349H84.741V96.7057H91.228V94.0349Z" fill="#24886D"/>
<path d="M81.791 94.0349H75.304V96.7057H81.791V94.0349Z" fill="#24886D"/>
<path d="M81.7882 89.1683H75.3813V91.8391H81.7882V89.1683Z" fill="#24886D"/>
<path d="M76.4465 73.2535H52.3442V75.4495H76.4465V73.2535Z" fill="#3BB493"/>
<path d="M72.3574 94.0349H65.8674V96.7057H72.3574V94.0349Z" fill="#24886D"/>
<path d="M72.3273 89.1683H65.9204V91.8391H72.3273V89.1683Z" fill="#24886D"/>
<path d="M62.9206 94.0349H56.4336V96.7057H62.9206V94.0349Z" fill="#24886D"/>
<path d="M62.8671 89.1683H56.4602V91.8391H62.8671V89.1683Z" fill="#24886D"/>
<path d="M53.4838 94.0349H46.9968V96.7057H53.4838V94.0349Z" fill="#24886D"/>
<path d="M53.4094 89.1683H46.9995V91.8391H53.4094V89.1683Z" fill="#24886D"/>
<path d="M44.0473 94.0349H37.5603V96.7057H44.0473V94.0349Z" fill="#24886D"/>
<path d="M43.9494 89.1683H37.5396V91.8391H43.9494V89.1683Z" fill="#24886D"/>
<path d="M34.613 94.0349H28.126V96.7057H34.613V94.0349Z" fill="#24886D"/>
<path d="M34.489 89.1683H28.0791V91.8391H34.489V89.1683Z" fill="#24886D"/>
<path d="M25.1764 94.0349H21.9121V96.7057H25.1764V94.0349Z" fill="#24886D"/>
<path d="M25.028 89.1683H21.9121V91.8391H25.028V89.1683Z" fill="#24886D"/>
<g class="object">
<rect x="4.54297" y="9.08569" width="119.629" height="54.5144" fill="#3BB493"/>
<path d="M79.5877 49.8474H72.8767C72.411 48.375 71.0027 47.302 69.342 47.302H65.449V42.7948L70.9734 37.4077H79.5877V49.8474ZM69.342 52.385H59.3721C58.5371 52.385 57.8578 51.7227 57.8578 50.9085C57.8578 50.0941 58.5371 49.4315 59.3721 49.4315H69.342C70.1771 49.4315 70.8564 50.0941 70.8564 50.9085C70.8564 51.7227 70.1771 52.385 69.342 52.385ZM49.1267 22.8429H55.8386C56.3056 24.313 57.7129 25.384 59.3721 25.384H63.2652V29.8919L57.421 35.5901C57.2163 35.7897 57.1012 36.0605 57.1012 36.343C57.1012 36.6254 57.2162 36.8961 57.421 37.0958L63.2652 42.7948V47.302H59.3721C57.7115 47.302 56.3033 48.375 55.8375 49.8474H49.1267V22.8429ZM59.3721 20.301H69.342C70.1771 20.301 70.8564 20.9637 70.8564 21.7782C70.8564 22.5922 70.1771 23.2546 69.342 23.2546H59.3721C58.5371 23.2546 57.8578 22.5922 57.8578 21.7782C57.8578 20.9637 58.5371 20.301 59.3721 20.301ZM64.3571 40.848L59.7373 36.343L64.3571 31.8387L68.9769 36.343L64.3571 40.848ZM80.6796 35.2782H70.9734L65.449 29.8919V25.384H69.342C71.3813 25.384 73.0403 23.7664 73.0403 21.7782C73.0403 19.7894 71.3813 18.1715 69.342 18.1715H59.3721C57.7129 18.1715 56.3055 19.2428 55.8385 20.7135H48.0348C47.4318 20.7135 46.9429 21.19 46.9429 21.7782V50.9121C46.9429 51.5001 47.4318 51.9768 48.0348 51.9768H55.8396C56.3077 53.4452 57.7142 54.5144 59.3721 54.5144H69.342C71 54.5144 72.4065 53.4452 72.8746 51.9768H80.6796C81.2826 51.9768 81.7715 51.5001 81.7715 50.9121V36.343C81.7715 35.755 81.2826 35.2782 80.6796 35.2782Z" fill="#FEFEFE"/>
<path d="M59.3721 20.301H69.342C70.1771 20.301 70.8564 20.9637 70.8564 21.7782C70.8564 22.5922 70.1771 23.2546 69.342 23.2546H59.3721C58.5371 23.2546 57.8578 22.5922 57.8578 21.7782C57.8578 20.9637 58.5371 20.301 59.3721 20.301Z" fill="#FEFEFE"/>
<path d="M64.3571 40.848L59.7373 36.343L64.3571 31.8387L68.9769 36.343L64.3571 40.848Z" fill="#FEFEFE"/>
<path d="M69.342 52.385H59.3721C58.5371 52.385 57.8578 51.7227 57.8578 50.9085C57.8578 50.0941 58.5371 49.4315 59.3721 49.4315H69.342C70.1771 49.4315 70.8564 50.0941 70.8564 50.9085C70.8564 51.7227 70.1771 52.385 69.342 52.385Z" fill="#FEFEFE"/>
</g>
</svg>
