<svg width="128" height="105" viewBox="0 0 128 105" fill="none" xmlns="http://www.w3.org/2000/svg">
<rect x="4.5" y="9" width="118.5" height="54.0001" fill="#3BB493"/>
<path d="M127.576 0V72.5624H78.3709V74.7377H88.4447V77.3833H39.1311V74.7377H49.2049V72.5624H0V0H127.576ZM124.93 69.9169V66.8627H122.314V68.8263H119.668V66.8627H2.64558V69.9169H124.93ZM124.93 64.2171V7.46642H2.64558V64.2171H124.93ZM124.93 4.82084V2.64558H2.64558V4.82084H124.93ZM75.7254 74.7377V72.5624H51.8505V74.7377H75.7254Z" fill="#3BB493"/>
<path d="M124.93 66.8628V69.917H2.64551V66.8628H119.668V68.8264H122.314V66.8628H124.93Z" fill="#3BB493"/>
<path d="M124.93 2.64551H2.64551V4.82076H124.93V2.64551Z" fill="#3BB493"/>
<path d="M112.123 83.7236V105H15.4504V83.7236H112.123ZM109.477 102.354V100.397H18.096V102.354H109.477ZM109.477 97.7511V86.3692H18.096V97.7511H109.477Z" fill="#24886D"/>
<path d="M109.477 100.397H18.0959V102.354H109.477V100.397Z" fill="#3BB493"/>
<path d="M109.477 86.3694V97.7513H18.0959V86.3694H109.477ZM105.868 95.7935V93.148H102.634V95.7935H105.868ZM105.868 90.9727V88.3271H102.781V90.9727H105.868ZM99.7592 90.9727V88.3271H93.4127V90.9727H99.7592ZM99.7151 95.7935V93.148H93.2893V95.7935H99.7151ZM90.3879 90.9727V88.3271H84.0415V90.9727H90.3879ZM90.3674 95.7935V93.148H83.9415V95.7935H90.3674ZM81.0196 95.7935V93.148H74.5938V95.7935H81.0196ZM81.0167 90.9727V88.3271H74.6702V90.9727H81.0167ZM71.6749 95.7935V93.148H65.2461V95.7935H71.6749ZM71.6455 90.9727V88.3271H65.299V90.9727H71.6455ZM62.3271 95.7935V93.148H55.9013V95.7935H62.3271ZM62.2742 90.9727V88.3271H55.9278V90.9727H62.2742ZM52.9794 95.7935V93.148H46.5536V95.7935H52.9794ZM52.9059 90.9727V88.3271H46.5565V90.9727H52.9059ZM43.6317 95.7935V93.148H37.2059V95.7935H43.6317ZM43.5347 90.9727V88.3271H37.1853V90.9727H43.5347ZM34.2869 95.7935V93.148H27.8611V95.7935H34.2869ZM34.1634 90.9727V88.3271H27.8141V90.9727H34.1634ZM24.9392 95.7935V93.148H21.7057V95.7935H24.9392ZM24.7922 90.9727V88.3271H21.7057V90.9727H24.7922Z" fill="#3BB493"/>
<path d="M105.867 93.1477H102.634V95.7933H105.867V93.1477Z" fill="#24886D"/>
<path d="M105.867 88.3271H102.781V90.9727H105.867V88.3271Z" fill="#24886D"/>
<path d="M99.7586 88.3271H93.4121V90.9727H99.7586V88.3271Z" fill="#24886D"/>
<path d="M99.7149 93.1477H93.2891V95.7933H99.7149V93.1477Z" fill="#24886D"/>
<path d="M90.388 88.3271H84.0415V90.9727H90.388V88.3271Z" fill="#24886D"/>
<path d="M90.3675 93.1477H83.9417V95.7933H90.3675V93.1477Z" fill="#24886D"/>
<path d="M81.0196 93.1477H74.5938V95.7933H81.0196V93.1477Z" fill="#24886D"/>
<path d="M81.0166 88.3271H74.6702V90.9727H81.0166V88.3271Z" fill="#24886D"/>
<path d="M75.7252 72.5625H51.8503V74.7378H75.7252V72.5625Z" fill="#3BB493"/>
<path d="M71.6749 93.1477H65.2461V95.7933H71.6749V93.1477Z" fill="#24886D"/>
<path d="M71.645 88.3271H65.2986V90.9727H71.645V88.3271Z" fill="#24886D"/>
<path d="M62.3269 93.1477H55.9011V95.7933H62.3269V93.1477Z" fill="#24886D"/>
<path d="M62.274 88.3271H55.9275V90.9727H62.274V88.3271Z" fill="#24886D"/>
<path d="M52.9793 93.1477H46.5535V95.7933H52.9793V93.1477Z" fill="#24886D"/>
<path d="M52.9055 88.3271H46.5562V90.9727H52.9055V88.3271Z" fill="#24886D"/>
<path d="M43.6319 93.1477H37.2061V95.7933H43.6319V93.1477Z" fill="#24886D"/>
<path d="M43.5349 88.3271H37.1855V90.9727H43.5349V88.3271Z" fill="#24886D"/>
<path d="M34.2864 93.1477H27.8606V95.7933H34.2864V93.1477Z" fill="#24886D"/>
<path d="M34.1636 88.3271H27.8142V90.9727H34.1636V88.3271Z" fill="#24886D"/>
<path d="M24.9388 93.1477H21.7053V95.7933H24.9388V93.1477Z" fill="#24886D"/>
<path d="M24.7918 88.3271H21.7053V90.9727H24.7918V88.3271Z" fill="#24886D"/>
<path fill-rule="evenodd" clip-rule="evenodd" d="M43.438 16.5H71.6067C72.3974 16.5 73.0443 17.1457 73.0443 17.9341V20.8398H75.4939C76.1165 19.1068 77.7656 17.9436 79.6193 17.9436C82.0388 17.9436 84.0001 19.9001 84.0001 22.3135C84.0001 24.727 82.0388 26.6835 79.6193 26.6835C77.7659 26.6835 76.1165 25.5203 75.4939 23.7876L73.0443 23.7882V26.6939C73.0443 27.4826 72.397 28.128 71.6067 28.128L43.438 28.1283C42.6473 28.1283 42.0003 27.4826 42.0003 26.6942L42 17.9338C42.0006 17.145 42.6473 16.5 43.438 16.5ZM73.7379 31.1864L83.3105 35.2788V43.0001C83.3105 48.3744 79.3909 53.0168 74.0863 53.9395L73.7381 54.0001L73.3899 53.9395C68.0854 53.0171 64.1657 48.3753 64.1657 43.0001L64.1663 35.2788L73.7379 31.1864ZM73.7379 34.6918L67.3976 37.4023V42.9994C67.3976 46.7317 70.0721 49.9878 73.7385 50.726C77.4049 49.9881 80.0795 46.7323 80.0795 42.9994V37.4023L73.7379 34.6918ZM66.44 36.321C66.1787 36.4318 66.0222 36.6851 66.0222 36.9515L66.0209 43C66.0209 47.4352 69.2452 51.2905 73.6152 52.0971C73.7065 52.1138 73.7962 52.1117 73.8813 52.0934C78.2423 51.2788 81.4564 47.4279 81.4564 43.0003V36.9517C81.4564 36.6513 81.2626 36.3958 80.9928 36.3027L74.0074 33.3163C73.8282 33.2405 73.6354 33.246 73.4697 33.3163L66.44 36.321ZM69.5842 43.3008L71.8943 45.6046C72.2971 46.0065 72.9503 46.0065 73.3531 45.6046C75.3324 43.6301 75.9251 43.0124 77.895 41.0277C78.2957 40.6258 78.2939 39.9762 77.891 39.5765C77.4882 39.1768 76.837 39.1786 76.4363 39.5804L72.6222 43.4202L71.0432 41.8457C70.6404 41.4439 69.9873 41.4439 69.5845 41.8457C69.1817 42.2475 69.1816 42.8995 69.5842 43.3008ZM76.9764 20.8867C77.2325 20.9871 77.415 21.2362 77.415 21.5263V23.1004C77.415 23.3905 77.2328 23.6396 76.9764 23.74C77.5013 24.7057 78.5117 25.3096 79.6186 25.3096C81.2775 25.3096 82.6224 23.968 82.6224 22.3132C82.6224 20.6584 81.2775 19.3168 79.6186 19.3168C78.5117 19.3168 77.5013 19.921 76.9764 20.8867ZM67.1413 20.2794V20.6556L66.8746 20.3895C66.6057 20.1214 66.1699 20.1214 65.901 20.3895C65.6322 20.6577 65.6322 21.0925 65.901 21.3607L66.1678 21.6267H65.7909C65.4109 21.6267 65.1024 21.9339 65.1024 22.3135C65.1024 22.6925 65.4103 23.0003 65.7909 23.0003H66.1678L65.901 23.2664C65.6322 23.5346 65.6322 23.9693 65.901 24.2375C66.1699 24.5057 66.6057 24.5057 66.8746 24.2375L67.1413 23.9714V24.3474C67.1413 24.7264 67.4492 25.0341 67.8298 25.0341C68.2097 25.0341 68.5182 24.727 68.5182 24.3474V23.9714L68.785 24.2375C69.0538 24.5057 69.4896 24.5057 69.7585 24.2375C70.0273 23.9693 70.0273 23.5346 69.7585 23.2664L69.4917 23.0003H69.8686C70.2486 23.0003 70.5571 22.6931 70.5571 22.3135C70.5571 21.9345 70.2492 21.6267 69.8686 21.6267H69.4917L69.7585 21.3607C70.0273 21.0925 70.0273 20.6578 69.7585 20.3895C69.4896 20.1214 69.0538 20.1214 68.785 20.3895L68.5182 20.6556L68.5185 20.2794C68.5185 19.9003 68.2106 19.5926 67.8301 19.5926C67.4495 19.5923 67.1413 19.8997 67.1413 20.2794ZM49.1429 23.266L48.8761 23H49.253C49.633 23 49.9415 22.6928 49.9415 22.3132C49.9415 21.9342 49.6336 21.6264 49.253 21.6264H48.8761L49.1429 21.3603C49.4117 21.0921 49.4117 20.6574 49.1429 20.3892C48.874 20.121 48.4382 20.121 48.1694 20.3892L47.9026 20.6553V20.2793C47.9026 19.9003 47.5947 19.5925 47.2142 19.5925C46.8342 19.5925 46.5257 19.8997 46.5257 20.2793V20.6556L46.259 20.3895C45.9901 20.1213 45.5543 20.1213 45.2854 20.3895C45.0166 20.6577 45.0166 21.0924 45.2854 21.3606L45.5522 21.6267H45.1753C44.7953 21.6267 44.4868 21.9339 44.4868 22.3135C44.4868 22.6925 44.7947 23.0003 45.1753 23.0003H45.5522L45.2854 23.266C45.0166 23.5342 45.0166 23.9689 45.2854 24.2371C45.5543 24.5053 45.9901 24.5053 46.259 24.2371L46.5257 23.9711V24.347C46.5257 24.726 46.8336 25.0338 47.2142 25.0338C47.5941 25.0338 47.9026 24.7267 47.9026 24.347V23.9711L48.1694 24.2371C48.4382 24.5053 48.874 24.5053 49.1429 24.2371C49.4117 23.9686 49.4117 23.5342 49.1429 23.266ZM56.0148 23.266L55.7481 23H56.125C56.5049 23 56.8135 22.6928 56.8135 22.3132C56.8135 21.9342 56.5055 21.6264 56.125 21.6264H55.7481L56.0148 21.3603C56.2837 21.0921 56.2837 20.6574 56.0148 20.3892C55.746 20.121 55.3102 20.121 55.0413 20.3892L54.7746 20.6553V20.2793C54.7746 19.9003 54.4667 19.5925 54.0861 19.5925C53.7062 19.5925 53.3976 19.8997 53.3976 20.2793V20.6556L53.1309 20.3895C52.862 20.1213 52.4262 20.1213 52.1574 20.3895C51.8885 20.6577 51.8885 21.0924 52.1574 21.3606L52.4241 21.6267H52.0472C51.6673 21.6267 51.3587 21.9339 51.3587 22.3135C51.3587 22.6925 51.6667 23.0003 52.0472 23.0003H52.4241L52.1574 23.2663C51.8885 23.5345 51.8885 23.9692 52.1574 24.2374C52.4262 24.5056 52.862 24.5056 53.1309 24.2374L53.3976 23.9714V24.3473C53.3976 24.7263 53.7055 25.0341 54.0861 25.0341C54.466 25.0341 54.7746 24.727 54.7746 24.3473V23.9714L55.0413 24.2374C55.3102 24.5056 55.7459 24.5056 56.0148 24.2374C56.2837 23.9686 56.2837 23.5342 56.0148 23.266ZM62.8868 23.266L62.62 23H62.9969C63.3769 23 63.6854 22.6928 63.6854 22.3132C63.6854 21.9342 63.3775 21.6264 62.9969 21.6264H62.62L62.8868 21.3603C63.1556 21.0921 63.1556 20.6574 62.8868 20.3892C62.6179 20.121 62.1821 20.121 61.9132 20.3892L61.6465 20.6553V20.2793C61.6465 19.9003 61.3386 19.5925 60.958 19.5925C60.5781 19.5925 60.2696 19.8997 60.2696 20.2793V20.6556L60.0028 20.3895C59.734 20.1213 59.2982 20.1213 59.0293 20.3895C58.7605 20.6577 58.7605 21.0924 59.0293 21.3606L59.2961 21.6267H58.9192C58.5392 21.6267 58.2307 21.9339 58.2307 22.3135C58.2307 22.6925 58.5386 23.0003 58.9192 23.0003H59.2961L59.0293 23.2663C58.7605 23.5345 58.7605 23.9692 59.0293 24.2374C59.2982 24.5056 59.734 24.5056 60.0028 24.2374L60.2696 23.9714V24.3473C60.2696 24.7263 60.5775 25.0341 60.958 25.0341C61.338 25.0341 61.6465 24.727 61.6465 24.3473V23.9714L61.9132 24.2374C62.1821 24.5056 62.6179 24.5056 62.8868 24.2374C63.1556 23.9686 63.1556 23.5342 62.8868 23.266Z" fill="#FEFEFE"/>
</svg>
