<svg width="128" height="105" viewBox="0 0 128 105" fill="none" xmlns="http://www.w3.org/2000/svg">
<path d="M127.576 0V72.5624H78.3709V74.7377H88.4447V77.3833H39.1311V74.7377H49.2049V72.5624H0V0H127.576ZM124.93 69.9169V66.8627H122.314V68.8263H119.668V66.8627H2.64558V69.9169H124.93ZM124.93 64.2171V7.46642H2.64558V64.2171H124.93ZM124.93 4.82084V2.64558H2.64558V4.82084H124.93ZM75.7254 74.7377V72.5624H51.8505V74.7377H75.7254Z" fill="#3BB493"/>
<path d="M124.93 66.8628V69.917H2.64551V66.8628H119.668V68.8264H122.314V66.8628H124.93Z" fill="#3BB493"/>
<path d="M124.93 2.64551H2.64551V4.82076H124.93V2.64551Z" fill="#3BB493"/>
<path d="M112.123 83.7236V105H15.4504V83.7236H112.123ZM109.477 102.354V100.397H18.096V102.354H109.477ZM109.477 97.7511V86.3692H18.096V97.7511H109.477Z" fill="#24886D"/>
<path d="M109.477 100.397H18.0959V102.354H109.477V100.397Z" fill="#3BB493"/>
<path d="M109.477 86.3694V97.7513H18.0959V86.3694H109.477ZM105.868 95.7935V93.148H102.634V95.7935H105.868ZM105.868 90.9727V88.3271H102.781V90.9727H105.868ZM99.7592 90.9727V88.3271H93.4127V90.9727H99.7592ZM99.7151 95.7935V93.148H93.2893V95.7935H99.7151ZM90.3879 90.9727V88.3271H84.0415V90.9727H90.3879ZM90.3674 95.7935V93.148H83.9415V95.7935H90.3674ZM81.0196 95.7935V93.148H74.5938V95.7935H81.0196ZM81.0167 90.9727V88.3271H74.6702V90.9727H81.0167ZM71.6749 95.7935V93.148H65.2461V95.7935H71.6749ZM71.6455 90.9727V88.3271H65.299V90.9727H71.6455ZM62.3271 95.7935V93.148H55.9013V95.7935H62.3271ZM62.2742 90.9727V88.3271H55.9278V90.9727H62.2742ZM52.9794 95.7935V93.148H46.5536V95.7935H52.9794ZM52.9059 90.9727V88.3271H46.5565V90.9727H52.9059ZM43.6317 95.7935V93.148H37.2059V95.7935H43.6317ZM43.5347 90.9727V88.3271H37.1853V90.9727H43.5347ZM34.2869 95.7935V93.148H27.8611V95.7935H34.2869ZM34.1634 90.9727V88.3271H27.8141V90.9727H34.1634ZM24.9392 95.7935V93.148H21.7057V95.7935H24.9392ZM24.7922 90.9727V88.3271H21.7057V90.9727H24.7922Z" fill="#3BB493"/>
<path d="M105.867 93.1477H102.634V95.7933H105.867V93.1477Z" fill="#24886D"/>
<path d="M105.867 88.3271H102.781V90.9727H105.867V88.3271Z" fill="#24886D"/>
<path d="M99.7586 88.3271H93.4121V90.9727H99.7586V88.3271Z" fill="#24886D"/>
<path d="M99.7149 93.1477H93.2891V95.7933H99.7149V93.1477Z" fill="#24886D"/>
<path d="M90.388 88.3271H84.0415V90.9727H90.388V88.3271Z" fill="#24886D"/>
<path d="M90.3675 93.1477H83.9417V95.7933H90.3675V93.1477Z" fill="#24886D"/>
<path d="M81.0196 93.1477H74.5938V95.7933H81.0196V93.1477Z" fill="#24886D"/>
<path d="M81.0166 88.3271H74.6702V90.9727H81.0166V88.3271Z" fill="#24886D"/>
<path d="M75.7252 72.5625H51.8503V74.7378H75.7252V72.5625Z" fill="#3BB493"/>
<path d="M71.6749 93.1477H65.2461V95.7933H71.6749V93.1477Z" fill="#24886D"/>
<path d="M71.645 88.3271H65.2986V90.9727H71.645V88.3271Z" fill="#24886D"/>
<path d="M62.3269 93.1477H55.9011V95.7933H62.3269V93.1477Z" fill="#24886D"/>
<path d="M62.274 88.3271H55.9275V90.9727H62.274V88.3271Z" fill="#24886D"/>
<path d="M52.9793 93.1477H46.5535V95.7933H52.9793V93.1477Z" fill="#24886D"/>
<path d="M52.9055 88.3271H46.5562V90.9727H52.9055V88.3271Z" fill="#24886D"/>
<path d="M43.6319 93.1477H37.2061V95.7933H43.6319V93.1477Z" fill="#24886D"/>
<path d="M43.5349 88.3271H37.1855V90.9727H43.5349V88.3271Z" fill="#24886D"/>
<path d="M34.2864 93.1477H27.8606V95.7933H34.2864V93.1477Z" fill="#24886D"/>
<path d="M34.1636 88.3271H27.8142V90.9727H34.1636V88.3271Z" fill="#24886D"/>
<path d="M24.9388 93.1477H21.7053V95.7933H24.9388V93.1477Z" fill="#24886D"/>
<path d="M24.7918 88.3271H21.7053V90.9727H24.7918V88.3271Z" fill="#24886D"/>
<g class="object">
<rect x="4.5" y="9" width="118.5" height="54.0001" fill="#3BB493"/>
<path d="M77.56 44.4858V48.1102C77.56 52.3164 70.4329 55.8512 62.0022 55.8512C53.5714 55.8512 46.4444 52.3164 46.4444 48.1102V44.4858C47.8352 45.9625 49.8774 47.2154 52.398 48.1102C55.1359 49.0946 58.3952 49.6765 61.9586 49.6765C65.5223 49.6765 68.8249 49.0947 71.5193 48.1102C74.0835 47.2154 76.1692 45.9621 77.56 44.4858ZM71.5627 39.8321C68.8248 40.8165 65.5655 41.3983 62.0021 41.3983C58.4384 41.3983 55.1358 40.8165 52.4415 39.8321C49.9209 38.9372 47.8784 37.6843 46.4879 36.2077V39.8321C46.4879 44.0383 53.6149 47.5731 62.0456 47.5731C70.4764 47.5731 77.6034 44.0383 77.6034 39.8321V36.2077C76.169 37.6843 74.0834 38.9372 71.5627 39.8321ZM71.5627 31.5987C68.8248 32.5832 65.5655 33.165 62.0021 33.165C58.4384 33.1647 55.1358 32.5832 52.4415 31.5987C49.9209 30.7039 47.8784 29.451 46.4879 27.9744V31.5987C46.4879 35.805 53.6149 39.3398 62.0456 39.3398C70.4764 39.3398 77.6034 35.805 77.6034 31.5987V27.9744C76.169 29.451 74.0834 30.7039 71.5627 31.5987ZM62.0021 15.5796C53.5714 15.5796 46.4443 19.1144 46.4443 23.3206C46.4443 27.5268 53.5714 31.062 62.0021 31.062C70.4329 31.062 77.5599 27.5272 77.5599 23.3209C77.5599 19.1144 70.4329 15.5796 62.0021 15.5796Z" fill="#FEFEFE"/>
</g>
</svg>
