<svg width="129" height="107" viewBox="0 0 129 107" fill="none" xmlns="http://www.w3.org/2000/svg">
<path d="M129 0V73.3725H79.2458V75.572H89.4321V78.2471H39.5679V75.572H49.7542V73.3725H0V0H129ZM126.325 70.6974V67.6091H123.679V69.5946H121.004V67.6091H2.67512V70.6974H126.325ZM126.325 64.934V7.54977H2.67512V64.934H126.325ZM126.325 4.87465V2.67512H2.67512V4.87465H126.325ZM76.5707 75.572V73.3725H52.4293V75.572H76.5707Z" fill="#3BB493"/>
<path d="M126.325 67.6091V70.6974H2.67505V67.6091H121.004V69.5947H123.679V67.6091H126.325Z" fill="#3BB493"/>
<path d="M126.325 2.67505H2.67505V4.87459H126.325V2.67505Z" fill="#3BB493"/>
<path d="M113.375 84.6583V106.172H15.623V84.6583H113.375ZM110.7 103.497V101.517H18.2982V103.497H110.7ZM110.7 98.8424V87.3334H18.2982V98.8424H110.7Z" fill="#24886D"/>
<path d="M110.7 101.517H18.2981V103.497H110.7V101.517Z" fill="#3BB493"/>
<path d="M110.7 87.3335V98.8424H18.2981V87.3335H110.7ZM107.049 96.8629V94.1877H103.78V96.8629H107.049ZM107.049 91.9882V89.3131H103.929V91.9882H107.049ZM100.873 91.9882V89.3131H94.4557V91.9882H100.873ZM100.828 96.8629V94.1877H94.3308V96.8629H100.828ZM91.3971 91.9882V89.3131H84.9798V91.9882H91.3971ZM91.3763 96.8629V94.1877H84.8787V96.8629H91.3763ZM81.9242 96.8629V94.1877H75.4267V96.8629H81.9242ZM81.9212 91.9882V89.3131H75.5039V91.9882H81.9212ZM72.4751 96.8629V94.1877H65.9746V96.8629H72.4751ZM72.4454 91.9882V89.3131H66.0281V91.9882H72.4454ZM63.023 96.8629V94.1877H56.5255V96.8629H63.023ZM62.9695 91.9882V89.3131H56.5522V91.9882H62.9695ZM53.571 96.8629V94.1877H47.0734V96.8629H53.571ZM53.4967 91.9882V89.3131H47.0764V91.9882H53.4967ZM44.1189 96.8629V94.1877H37.6213V96.8629H44.1189ZM44.0208 91.9882V89.3131H37.6005V91.9882H44.0208ZM34.6698 96.8629V94.1877H28.1722V96.8629H34.6698ZM34.545 91.9882V89.3131H28.1247V91.9882H34.545ZM25.2177 96.8629V94.1877H21.9481V96.8629H25.2177ZM25.0691 91.9882V89.3131H21.9481V91.9882H25.0691Z" fill="#3BB493"/>
<path d="M107.049 94.1876H103.78V96.8627H107.049V94.1876Z" fill="#24886D"/>
<path d="M107.049 89.3131H103.928V91.9882H107.049V89.3131Z" fill="#24886D"/>
<path d="M100.872 89.3131H94.4551V91.9882H100.872V89.3131Z" fill="#24886D"/>
<path d="M100.828 94.1876H94.3306V96.8627H100.828V94.1876Z" fill="#24886D"/>
<path d="M91.397 89.3131H84.9797V91.9882H91.397V89.3131Z" fill="#24886D"/>
<path d="M91.3762 94.1876H84.8787V96.8627H91.3762V94.1876Z" fill="#24886D"/>
<path d="M81.9238 94.1876H75.4263V96.8627H81.9238V94.1876Z" fill="#24886D"/>
<path d="M81.921 89.3131H75.5037V91.9882H81.921V89.3131Z" fill="#24886D"/>
<path d="M76.5706 73.3724H52.4292V75.572H76.5706V73.3724Z" fill="#3BB493"/>
<path d="M72.4749 94.1876H65.9744V96.8627H72.4749V94.1876Z" fill="#24886D"/>
<path d="M72.4446 89.3131H66.0273V91.9882H72.4446V89.3131Z" fill="#24886D"/>
<path d="M63.0227 94.1876H56.5251V96.8627H63.0227V94.1876Z" fill="#24886D"/>
<path d="M62.9691 89.3131H56.5518V91.9882H62.9691V89.3131Z" fill="#24886D"/>
<path d="M53.5708 94.1876H47.0732V96.8627H53.5708V94.1876Z" fill="#24886D"/>
<path d="M53.4962 89.3131H47.0759V91.9882H53.4962V89.3131Z" fill="#24886D"/>
<path d="M44.1189 94.1876H37.6213V96.8627H44.1189V94.1876Z" fill="#24886D"/>
<path d="M44.0209 89.3131H37.6006V91.9882H44.0209V89.3131Z" fill="#24886D"/>
<path d="M34.6692 94.1876H28.1716V96.8627H34.6692V94.1876Z" fill="#24886D"/>
<path d="M34.545 89.3131H28.1248V91.9882H34.545V89.3131Z" fill="#24886D"/>
<path d="M25.2173 94.1876H21.9478V96.8627H25.2173V94.1876Z" fill="#24886D"/>
<path d="M25.0687 89.3131H21.9478V91.9882H25.0687V89.3131Z" fill="#24886D"/>
<g class="object">
<rect x="4.55029" y="9.10046" width="119.823" height="54.6029" fill="#3BB493"/>
<path d="M81.9045 28.9097L64.4619 16.6842L47.0193 28.9097L64.4619 41.1339L81.9045 28.9097ZM64.4619 43.8617L49.0654 33.4688L47.0193 35.6428L64.4619 47.867L81.9045 35.6428L79.8307 33.4221L64.4619 43.8617ZM64.4619 50.5976L49.0654 40.2048L47.0193 42.3788L64.4619 54.6029L81.9045 42.3788L79.8307 40.158L64.4619 50.5976Z" fill="#FEFEFE"/>
<path class="diff" d="M65.2311 24.53L68.9635 25.1517L68.3033 28.8777L68.3035 28.8775C68.2713 29.0459 68.3078 29.2199 68.4052 29.3611C68.5023 29.502 68.6519 29.5983 68.8204 29.6282C68.9889 29.6582 69.1625 29.6192 69.3023 29.5204C69.442 29.4213 69.5362 29.2704 69.564 29.1013L70.3372 24.7381L70.3372 24.7385C70.3672 24.57 70.3283 24.3966 70.2296 24.257C70.131 24.1174 69.9806 24.0229 69.8119 23.9951L65.4408 23.2674L65.441 23.2672C65.2723 23.237 65.0986 23.2754 64.9588 23.3742C64.8189 23.4728 64.7241 23.6234 64.6961 23.7923C64.6681 23.9611 64.7089 24.1342 64.8095 24.2731C64.9099 24.4117 65.0617 24.5042 65.2312 24.5301L65.2311 24.53Z" fill="#3BB493"/>
<path class="diff" d="M63.7987 33.1758C63.9674 33.206 64.1411 33.1675 64.2811 33.069C64.4209 32.9702 64.5156 32.8196 64.5436 32.6507C64.5716 32.4818 64.5308 32.3088 64.4302 32.1699C64.3298 32.0312 64.178 31.9387 64.0085 31.9129L60.2762 31.2911L60.9364 27.5652L60.9362 27.5654C60.9684 27.397 60.9318 27.223 60.8347 27.0821C60.7373 26.9409 60.5878 26.8446 60.4193 26.8147C60.2508 26.7847 60.0772 26.8237 59.9375 26.9228C59.7977 27.0215 59.7035 27.1725 59.6757 27.3416L58.9024 31.7048L58.9027 31.7046C58.8725 31.8729 58.9114 32.0463 59.01 32.1859C59.1087 32.3254 59.2591 32.42 59.428 32.448L63.7987 33.1758Z" fill="#3BB493"/>
<path class="diff" d="M66.1116 33.3779C66.1843 33.358 66.253 33.3256 66.3146 33.282C66.5336 33.1269 66.6329 32.852 66.5641 32.5927L63.98 22.9869L63.9797 22.9871C63.888 22.6453 63.5365 22.4426 63.1945 22.5345C62.8529 22.6265 62.6502 22.978 62.7422 23.3196L65.3263 32.9254L65.3265 32.9256C65.419 33.2669 65.7701 33.4692 66.1116 33.3779Z" fill="#3BB493"/>
</g>
</svg>
