<svg width="128" height="105" viewBox="0 0 128 105" fill="none" xmlns="http://www.w3.org/2000/svg">
<path d="M127.576 0V72.5624H78.3709V74.7377H88.4447V77.3833H39.1311V74.7377H49.2049V72.5624H0V0H127.576ZM124.93 69.9169V66.8627H122.314V68.8263H119.668V66.8627H2.64558V69.9169H124.93ZM124.93 64.2171V7.46642H2.64558V64.2171H124.93ZM124.93 4.82084V2.64558H2.64558V4.82084H124.93ZM75.7254 74.7377V72.5624H51.8505V74.7377H75.7254Z" fill="#3BB493"/>
<path d="M124.93 66.8628V69.917H2.64551V66.8628H119.668V68.8264H122.314V66.8628H124.93Z" fill="#3BB493"/>
<path d="M124.93 2.64551H2.64551V4.82076H124.93V2.64551Z" fill="#3BB493"/>
<path d="M112.123 83.7236V105H15.4504V83.7236H112.123ZM109.477 102.354V100.397H18.096V102.354H109.477ZM109.477 97.7511V86.3692H18.096V97.7511H109.477Z" fill="#24886D"/>
<path d="M109.477 100.397H18.0959V102.354H109.477V100.397Z" fill="#3BB493"/>
<path d="M109.477 86.3694V97.7513H18.0959V86.3694H109.477ZM105.868 95.7935V93.148H102.634V95.7935H105.868ZM105.868 90.9727V88.3271H102.781V90.9727H105.868ZM99.7592 90.9727V88.3271H93.4127V90.9727H99.7592ZM99.7151 95.7935V93.148H93.2893V95.7935H99.7151ZM90.3879 90.9727V88.3271H84.0415V90.9727H90.3879ZM90.3674 95.7935V93.148H83.9415V95.7935H90.3674ZM81.0196 95.7935V93.148H74.5938V95.7935H81.0196ZM81.0167 90.9727V88.3271H74.6702V90.9727H81.0167ZM71.6749 95.7935V93.148H65.2461V95.7935H71.6749ZM71.6455 90.9727V88.3271H65.299V90.9727H71.6455ZM62.3271 95.7935V93.148H55.9013V95.7935H62.3271ZM62.2742 90.9727V88.3271H55.9278V90.9727H62.2742ZM52.9794 95.7935V93.148H46.5536V95.7935H52.9794ZM52.9059 90.9727V88.3271H46.5565V90.9727H52.9059ZM43.6317 95.7935V93.148H37.2059V95.7935H43.6317ZM43.5347 90.9727V88.3271H37.1853V90.9727H43.5347ZM34.2869 95.7935V93.148H27.8611V95.7935H34.2869ZM34.1634 90.9727V88.3271H27.8141V90.9727H34.1634ZM24.9392 95.7935V93.148H21.7057V95.7935H24.9392ZM24.7922 90.9727V88.3271H21.7057V90.9727H24.7922Z" fill="#3BB493"/>
<path d="M105.867 93.1477H102.634V95.7933H105.867V93.1477Z" fill="#24886D"/>
<path d="M105.867 88.3271H102.781V90.9727H105.867V88.3271Z" fill="#24886D"/>
<path d="M99.7586 88.3271H93.4121V90.9727H99.7586V88.3271Z" fill="#24886D"/>
<path d="M99.7149 93.1477H93.2891V95.7933H99.7149V93.1477Z" fill="#24886D"/>
<path d="M90.388 88.3271H84.0415V90.9727H90.388V88.3271Z" fill="#24886D"/>
<path d="M90.3675 93.1477H83.9417V95.7933H90.3675V93.1477Z" fill="#24886D"/>
<path d="M81.0196 93.1477H74.5938V95.7933H81.0196V93.1477Z" fill="#24886D"/>
<path d="M81.0166 88.3271H74.6702V90.9727H81.0166V88.3271Z" fill="#24886D"/>
<path d="M75.7252 72.5625H51.8503V74.7378H75.7252V72.5625Z" fill="#3BB493"/>
<path d="M71.6749 93.1477H65.2461V95.7933H71.6749V93.1477Z" fill="#24886D"/>
<path d="M71.645 88.3271H65.2986V90.9727H71.645V88.3271Z" fill="#24886D"/>
<path d="M62.3269 93.1477H55.9011V95.7933H62.3269V93.1477Z" fill="#24886D"/>
<path d="M62.274 88.3271H55.9275V90.9727H62.274V88.3271Z" fill="#24886D"/>
<path d="M52.9793 93.1477H46.5535V95.7933H52.9793V93.1477Z" fill="#24886D"/>
<path d="M52.9055 88.3271H46.5562V90.9727H52.9055V88.3271Z" fill="#24886D"/>
<path d="M43.6319 93.1477H37.2061V95.7933H43.6319V93.1477Z" fill="#24886D"/>
<path d="M43.5349 88.3271H37.1855V90.9727H43.5349V88.3271Z" fill="#24886D"/>
<path d="M34.2864 93.1477H27.8606V95.7933H34.2864V93.1477Z" fill="#24886D"/>
<path d="M34.1636 88.3271H27.8142V90.9727H34.1636V88.3271Z" fill="#24886D"/>
<path d="M24.9388 93.1477H21.7053V95.7933H24.9388V93.1477Z" fill="#24886D"/>
<path d="M24.7918 88.3271H21.7053V90.9727H24.7918V88.3271Z" fill="#24886D"/>
<g class="object">
<rect x="4.5" y="9" width="118.5" height="54.0001" fill="#3BB493"/>
<path d="M76.2507 24.0004C76.2507 24.6907 75.691 25.2504 75.0007 25.2504C74.3104 25.2504 73.7507 24.6907 73.7507 24.0004C73.7507 23.3101 74.3104 22.7504 75.0007 22.7504C75.691 22.7504 76.2507 23.3101 76.2507 24.0004Z" fill="#FEFEFE"/>
<path d="M75.0005 20.2502C74.0058 20.2502 73.0521 20.6453 72.3487 21.3485C71.6456 22.0519 71.2505 23.0055 71.2505 24.0003C71.2505 24.995 71.6456 25.9486 72.3487 26.652C73.0521 27.3552 74.0058 27.7503 75.0005 27.7503C75.9952 27.7503 76.9489 27.3552 77.6523 26.652C78.3554 25.9486 78.7505 24.995 78.7505 24.0003C78.7494 23.0061 78.354 22.0527 77.6509 21.3499C76.948 20.6468 75.9946 20.2514 75.0005 20.2502ZM75.0005 26.5003C74.3376 26.5003 73.7016 26.2369 73.2326 25.7681C72.7639 25.2991 72.5005 24.6632 72.5005 24.0003C72.5005 23.3373 72.7639 22.7014 73.2326 22.2324C73.7017 21.7636 74.3376 21.5002 75.0005 21.5002C75.6634 21.5002 76.2994 21.7636 76.7684 22.2324C77.2371 22.7014 77.5005 23.3373 77.5005 24.0003C77.4997 24.6632 77.236 25.2985 76.7675 25.7673C76.2987 26.2357 75.6634 26.4994 75.0005 26.5003Z" fill="#FEFEFE"/>
<path d="M56.25 40.8753V38.983C55.9414 39.1764 55.6155 39.3405 55.2765 39.4733C54.024 39.9744 52.3719 40.2503 50.625 40.2503C48.8781 40.2503 47.226 39.9744 45.9735 39.4733C45.6345 39.3405 45.3086 39.1764 45 38.983V40.8753C45 41.6398 47.1911 42.7503 50.625 42.7503C54.0589 42.7503 56.25 41.6398 56.25 40.8753ZM46.875 41.5003C46.6222 41.5003 46.3943 41.348 46.2977 41.1144C46.2009 40.8809 46.2542 40.6122 46.433 40.4334C46.6119 40.2545 46.8806 40.2012 47.1141 40.298C47.3477 40.3946 47.5 40.6225 47.5 40.8753C47.5 41.0411 47.4342 41.2001 47.317 41.3173C47.1998 41.4345 47.0407 41.5003 46.875 41.5003Z" fill="#FEFEFE"/>
<path d="M50.625 35.25C54.0589 35.25 56.25 34.1395 56.25 33.375V31.4827C55.9414 31.676 55.6155 31.8401 55.2765 31.9729C54.024 32.474 52.3719 32.75 50.625 32.75C48.8781 32.75 47.226 32.474 45.9735 31.9729C45.6345 31.8401 45.3086 31.676 45 31.4827V33.375C45 34.1395 47.1911 35.25 50.625 35.25ZM46.875 32.75C47.1278 32.75 47.3558 32.9023 47.4523 33.1358C47.5491 33.3694 47.4958 33.6381 47.317 33.8169C47.1381 33.9958 46.8694 34.0491 46.6359 33.9522C46.4023 33.8557 46.25 33.6277 46.25 33.375C46.25 33.0298 46.5299 32.75 46.875 32.75Z" fill="#FEFEFE"/>
<path d="M50.625 39.0002C54.0589 39.0002 56.25 37.8897 56.25 37.1252V35.2329C55.9414 35.4263 55.6155 35.5903 55.2765 35.7231C54.024 36.2243 52.3719 36.5002 50.625 36.5002C48.8781 36.5002 47.226 36.2243 45.9735 35.7231C45.6345 35.5903 45.3086 35.4263 45 35.2329V37.1252C45 37.8897 47.1911 39.0002 50.625 39.0002ZM46.875 36.5002C47.1278 36.5002 47.3558 36.6525 47.4523 36.8861C47.5491 37.1196 47.4958 37.3883 47.317 37.5672C47.1381 37.746 46.8694 37.7993 46.6359 37.7025C46.4023 37.6059 46.25 37.378 46.25 37.1252C46.25 36.7801 46.5299 36.5002 46.875 36.5002Z" fill="#FEFEFE"/>
<path d="M64.7547 26.0136L62.9868 24.2457L59.8931 27.3394C59.7759 27.4566 59.6168 27.5225 59.4511 27.5225C59.2854 27.5225 59.1263 27.4566 59.0091 27.3394L58.7505 27.0805V30.2499H61.9199L61.6609 29.991C61.5437 29.8738 61.4779 29.7147 61.4779 29.549C61.4779 29.3833 61.5437 29.2242 61.6609 29.107L64.7547 26.0136Z" fill="#FEFEFE"/>
<path d="M61.9199 40.2373H58.7505V43.4067L59.0094 43.1477C59.1266 43.0306 59.2856 42.9647 59.4514 42.9647C59.6171 42.9647 59.7762 43.0306 59.8933 43.1477L62.9871 46.2415L64.7549 44.4736L61.6612 41.3799C61.544 41.2627 61.4782 41.1037 61.4782 40.9379C61.4782 40.7722 61.544 40.6131 61.6612 40.4959L61.9199 40.2373Z" fill="#FEFEFE"/>
<path d="M56.25 29.625C56.25 30.6604 53.7316 31.5 50.625 31.5C47.5184 31.5 45 30.6604 45 29.625C45 28.5896 47.5184 27.75 50.625 27.75C53.7316 27.75 56.25 28.5896 56.25 29.625Z" fill="#FEFEFE"/>
<path d="M73.7501 35.2505V39.6255C73.7501 39.7912 73.6843 39.9503 73.5671 40.0675C73.4499 40.1847 73.2908 40.2505 73.1251 40.2505H72.759L75.0001 42.4916L77.2412 40.2505H76.8751C76.53 40.2505 76.2501 39.9706 76.2501 39.6255V35.2505H73.7501Z" fill="#FEFEFE"/>
<path d="M80.4256 47.5773C78.5791 46.0329 76.5433 45.25 74.3745 45.25C72.2057 45.25 70.17 46.0329 68.3235 47.5773C67.6005 48.1825 66.9504 48.8697 66.3862 49.625C66.9504 50.3803 67.6008 51.0675 68.3237 51.6727C70.17 53.2171 72.2057 54 74.3745 54C76.5433 54 78.5791 53.2171 80.4256 51.6727C81.1486 51.0675 81.7987 50.3803 82.3628 49.625C81.7987 48.8697 81.1486 48.1825 80.4256 47.5773ZM74.3745 52.75C73.5458 52.75 72.751 52.4208 72.1647 51.8349C71.5787 51.2487 71.2495 50.4537 71.2495 49.625C71.2495 48.7963 71.5788 48.0014 72.1647 47.4151C72.7509 46.8292 73.5458 46.5 74.3745 46.5C75.2033 46.5 75.9981 46.8292 76.5844 47.4151C77.1703 48.0014 77.4995 48.7963 77.4995 49.625C77.4987 50.4534 77.1692 51.2478 76.5833 51.8337C75.9973 52.4197 75.203 52.7492 74.3745 52.75Z" fill="#FEFEFE"/>
<path d="M80.3675 22.312C80.2587 21.9646 80.1161 21.6289 79.9417 21.3095C79.8089 21.0662 79.8524 20.7643 80.0483 20.5681L80.9914 19.625L79.3753 18.009L78.4322 18.9523C78.2361 19.1482 77.9342 19.1917 77.6908 19.0589C77.3714 18.8845 77.0357 18.7419 76.6883 18.6331C76.4277 18.5514 76.2503 18.31 76.2503 18.0369V16.5H73.7503V18.0369C73.7503 18.31 73.5728 18.5514 73.3122 18.6331C72.9648 18.7419 72.6292 18.8845 72.3097 19.0589C72.0664 19.1917 71.7645 19.1482 71.5684 18.9523L70.6253 18.009L69.0092 19.625L69.9526 20.5681C70.1484 20.7643 70.192 21.0662 70.0592 21.3095C69.8848 21.6289 69.7422 21.9646 69.6334 22.312C69.5516 22.5726 69.3103 22.75 69.0371 22.75H67.5002V25.25H69.0371C69.3103 25.25 69.5516 25.4275 69.6334 25.6881C69.7422 26.0355 69.8848 26.3711 70.0592 26.6906C70.192 26.9339 70.1484 27.2358 69.9526 27.432L69.0092 28.375L70.6253 29.9911L71.5684 29.0477C71.7645 28.8519 72.0664 28.8083 72.3097 28.9412C72.6292 29.1155 72.9649 29.2581 73.3122 29.3669C73.5728 29.4487 73.7503 29.69 73.7503 29.9632V31.5001H76.2503V29.9632C76.2503 29.69 76.4277 29.4487 76.6883 29.3669C77.0357 29.2581 77.3714 29.1155 77.6908 28.9412C77.9341 28.8083 78.236 28.8519 78.4322 29.0477L79.3753 29.9911L80.9914 28.375L80.048 27.432C79.8521 27.2358 79.8086 26.9339 79.9414 26.6906C80.1158 26.3711 80.2584 26.0355 80.3672 25.6881C80.4489 25.4275 80.6903 25.25 80.9635 25.25H82.5003V22.75H80.9635C80.6906 22.75 80.4492 22.5726 80.3675 22.312ZM75.0002 29.0001C73.6741 29.0001 72.4023 28.4733 71.4648 27.5355C70.527 26.598 70.0002 25.3262 70.0002 24C70.0002 22.6739 70.527 21.4021 71.4648 20.4646C72.4023 19.5268 73.6741 19 75.0002 19C76.3264 19 77.5982 19.5268 78.5357 20.4646C79.4735 21.4021 80.0003 22.6739 80.0003 24C79.9989 25.3257 79.4715 26.5966 78.534 27.5338C77.5968 28.4713 76.3259 28.9987 75.0002 29.0001Z" fill="#FEFEFE"/>
<path d="M74.3747 47.7502C73.8775 47.7502 73.4004 47.9477 73.0489 48.2993C72.6974 48.6508 72.4998 49.128 72.4998 49.6251C72.4998 50.1223 72.6973 50.5995 73.0489 50.951C73.4004 51.3025 73.8776 51.5001 74.3747 51.5001C74.8719 51.5001 75.3491 51.3026 75.7006 50.951C76.0521 50.5994 76.2497 50.1223 76.2497 49.6251C76.2491 49.1279 76.0513 48.6514 75.6998 48.3001C75.3485 47.9485 74.8719 47.7507 74.3747 47.7502ZM74.3747 50.2502C74.1219 50.2502 73.894 50.0978 73.7974 49.8643C73.7006 49.6308 73.7539 49.3621 73.9328 49.1832C74.1116 49.0044 74.3803 48.9511 74.6138 49.0479C74.8474 49.1444 74.9997 49.3724 74.9997 49.6252C74.9997 49.7909 74.9339 49.95 74.8167 50.0671C74.6995 50.1843 74.5405 50.2502 74.3747 50.2502Z" fill="#FEFEFE"/>
</g>
</svg>
