<svg width="128" height="105" viewBox="0 0 128 105" fill="none" xmlns="http://www.w3.org/2000/svg">
<path d="M127.576 0V72.5624H78.3709V74.7377H88.4447V77.3833H39.1311V74.7377H49.2049V72.5624H0V0H127.576ZM124.93 69.9169V66.8627H122.314V68.8263H119.668V66.8627H2.64558V69.9169H124.93ZM124.93 64.2171V7.46642H2.64558V64.2171H124.93ZM124.93 4.82084V2.64558H2.64558V4.82084H124.93ZM75.7254 74.7377V72.5624H51.8505V74.7377H75.7254Z" fill="#3BB493"/>
<path d="M124.93 66.8628V69.917H2.64551V66.8628H119.668V68.8264H122.314V66.8628H124.93Z" fill="#3BB493"/>
<path d="M124.93 2.64551H2.64551V4.82076H124.93V2.64551Z" fill="#3BB493"/>
<path d="M112.123 83.7236V105H15.4504V83.7236H112.123ZM109.477 102.354V100.397H18.096V102.354H109.477ZM109.477 97.7511V86.3692H18.096V97.7511H109.477Z" fill="#24886D"/>
<path d="M109.477 100.397H18.0959V102.354H109.477V100.397Z" fill="#3BB493"/>
<path d="M109.477 86.3694V97.7513H18.0959V86.3694H109.477ZM105.868 95.7935V93.148H102.634V95.7935H105.868ZM105.868 90.9727V88.3271H102.781V90.9727H105.868ZM99.7592 90.9727V88.3271H93.4127V90.9727H99.7592ZM99.7151 95.7935V93.148H93.2893V95.7935H99.7151ZM90.3879 90.9727V88.3271H84.0415V90.9727H90.3879ZM90.3674 95.7935V93.148H83.9415V95.7935H90.3674ZM81.0196 95.7935V93.148H74.5938V95.7935H81.0196ZM81.0167 90.9727V88.3271H74.6702V90.9727H81.0167ZM71.6749 95.7935V93.148H65.2461V95.7935H71.6749ZM71.6455 90.9727V88.3271H65.299V90.9727H71.6455ZM62.3271 95.7935V93.148H55.9013V95.7935H62.3271ZM62.2742 90.9727V88.3271H55.9278V90.9727H62.2742ZM52.9794 95.7935V93.148H46.5536V95.7935H52.9794ZM52.9059 90.9727V88.3271H46.5565V90.9727H52.9059ZM43.6317 95.7935V93.148H37.2059V95.7935H43.6317ZM43.5347 90.9727V88.3271H37.1853V90.9727H43.5347ZM34.2869 95.7935V93.148H27.8611V95.7935H34.2869ZM34.1634 90.9727V88.3271H27.8141V90.9727H34.1634ZM24.9392 95.7935V93.148H21.7057V95.7935H24.9392ZM24.7922 90.9727V88.3271H21.7057V90.9727H24.7922Z" fill="#3BB493"/>
<path d="M105.867 93.1477H102.634V95.7933H105.867V93.1477Z" fill="#24886D"/>
<path d="M105.867 88.3271H102.781V90.9727H105.867V88.3271Z" fill="#24886D"/>
<path d="M99.7586 88.3271H93.4121V90.9727H99.7586V88.3271Z" fill="#24886D"/>
<path d="M99.7149 93.1477H93.2891V95.7933H99.7149V93.1477Z" fill="#24886D"/>
<path d="M90.388 88.3271H84.0415V90.9727H90.388V88.3271Z" fill="#24886D"/>
<path d="M90.3675 93.1477H83.9417V95.7933H90.3675V93.1477Z" fill="#24886D"/>
<path d="M81.0196 93.1477H74.5938V95.7933H81.0196V93.1477Z" fill="#24886D"/>
<path d="M81.0166 88.3271H74.6702V90.9727H81.0166V88.3271Z" fill="#24886D"/>
<path d="M75.7252 72.5625H51.8503V74.7378H75.7252V72.5625Z" fill="#3BB493"/>
<path d="M71.6749 93.1477H65.2461V95.7933H71.6749V93.1477Z" fill="#24886D"/>
<path d="M71.645 88.3271H65.2986V90.9727H71.645V88.3271Z" fill="#24886D"/>
<path d="M62.3269 93.1477H55.9011V95.7933H62.3269V93.1477Z" fill="#24886D"/>
<path d="M62.274 88.3271H55.9275V90.9727H62.274V88.3271Z" fill="#24886D"/>
<path d="M52.9793 93.1477H46.5535V95.7933H52.9793V93.1477Z" fill="#24886D"/>
<path d="M52.9055 88.3271H46.5562V90.9727H52.9055V88.3271Z" fill="#24886D"/>
<path d="M43.6319 93.1477H37.2061V95.7933H43.6319V93.1477Z" fill="#24886D"/>
<path d="M43.5349 88.3271H37.1855V90.9727H43.5349V88.3271Z" fill="#24886D"/>
<path d="M34.2864 93.1477H27.8606V95.7933H34.2864V93.1477Z" fill="#24886D"/>
<path d="M34.1636 88.3271H27.8142V90.9727H34.1636V88.3271Z" fill="#24886D"/>
<path d="M24.9388 93.1477H21.7053V95.7933H24.9388V93.1477Z" fill="#24886D"/>
<path d="M24.7918 88.3271H21.7053V90.9727H24.7918V88.3271Z" fill="#24886D"/>
<g class="object">
<rect x="4.5" y="9" width="118.5" height="54.0001" fill="#3BB493"/>
<path d="M77.4731 18H51.527C50.3919 18 49.5 18.8609 49.5 19.9565V46.174C49.5 47.2696 50.3919 48.1305 51.527 48.1305H61.6622V52.8261C61.6622 53.4913 62.1893 54.0001 62.8785 54.0001H66.1218C66.811 54.0001 67.3381 53.4913 67.3381 52.8261L67.3378 48.1308H77.473C78.6082 48.1308 79.5001 47.2699 79.5001 46.1742V19.9568C79.5001 18.8612 78.6082 18 77.4731 18ZM76.2568 19.9565C76.7028 19.9565 77.0675 20.3086 77.0675 20.7391C77.0675 21.1695 76.7027 21.5216 76.2568 21.5216C75.8108 21.5216 75.4461 21.1695 75.4461 20.7391C75.4461 20.3089 75.8109 19.9565 76.2568 19.9565ZM73.8245 19.9565C74.2705 19.9565 74.6352 20.3086 74.6352 20.7391C74.6352 21.1695 74.2704 21.5216 73.8245 21.5216C73.3785 21.5216 73.0138 21.1695 73.0138 20.7391C73.0138 20.3089 73.3786 19.9565 73.8245 19.9565ZM71.3919 19.9565C71.8379 19.9565 72.2027 20.3086 72.2027 20.7391C72.2027 21.1695 71.8379 21.5216 71.3919 21.5216C70.9459 21.5216 70.5812 21.1695 70.5812 20.7391C70.5812 20.3089 70.946 19.9565 71.3919 19.9565ZM65.7164 44.2174H63.2838V42.9651C63.6893 43.0042 64.0945 43.0435 64.5001 43.0435C64.9056 43.0435 65.3108 43.0044 65.7164 42.9651V44.2174ZM64.5001 42.2609C61.0136 42.2609 57.811 40.148 56.5541 36.9782C56.2702 36.2346 56.0677 35.4911 56.027 34.7086C55.9865 34.4738 55.9865 34.2391 55.9865 34.0434C55.9865 29.5042 59.7974 25.826 64.5001 25.826C67.3379 25.826 69.9325 27.1564 71.5542 29.426L70.5407 30.0522C69.1621 28.0956 66.9326 27 64.5001 27C60.7299 27 57.5675 29.8174 57.2433 33.4174C57.2026 33.5741 57.2026 33.8088 57.2026 34.0435C57.2026 34.7477 57.3242 35.4522 57.5269 36.1174C58.4593 39.0522 61.2567 41.0871 64.4999 41.0871C68.5135 41.0871 71.7973 37.9176 71.7973 34.0436C71.7973 33.6522 71.7568 33.3001 71.6757 32.909L72.7703 32.2438C72.8919 32.8306 72.9731 33.4567 72.9731 34.0829C73.0135 38.5828 69.2026 42.2609 64.5001 42.2609ZM61.4595 34.1218L63.6486 37.3696C63.7297 37.487 63.8513 37.5653 63.9729 37.5653C64.0541 37.5653 64.135 37.5653 64.1757 37.487L70.946 33.3392C70.9867 33.574 70.9867 33.8087 70.9867 34.0434C70.9867 37.487 68.0678 40.3044 64.5 40.3044C61.7434 40.3044 59.3108 38.661 58.3785 36.1567L61.4595 34.1218ZM58.1758 32.5957C58.8649 29.8173 61.4595 27.7824 64.5001 27.7824C66.6487 27.7824 68.5946 28.7607 69.8108 30.4825L64.9055 33.4173L62.7165 30.1694C62.676 30.0911 62.5544 30.013 62.4733 30.013C62.3517 29.974 62.2705 30.013 62.1489 30.0521L58.1758 32.5957ZM78.6894 46.174C78.6894 46.8392 78.1623 47.348 77.4731 47.348L67.3379 47.3477V45.3912C67.3379 44.8824 67.0135 44.452 66.5272 44.2955V42.8477C70.7029 41.9478 73.8245 38.3479 73.8245 34.0434C73.8245 33.2608 73.7029 32.5173 73.5001 31.7738L74.1081 31.3824L74.6757 32.3997C74.7568 32.5171 74.8784 32.5954 75.0405 32.5954C75.2025 32.5954 75.3244 32.5171 75.4053 32.3607L77.3919 28.0172C77.4323 27.8998 77.4323 27.7825 77.3514 27.6651C77.2703 27.5477 77.1894 27.4694 77.0271 27.4694L72.3243 26.9999C72.1622 26.9999 72.0403 27.0389 71.9595 27.1563C71.8783 27.2737 71.8783 27.4303 71.9595 27.5477L72.6486 28.7217L72.2838 28.9564C70.4999 26.4914 67.6218 25.0434 64.5 25.0434C59.3513 25.0434 55.1756 29.0738 55.1756 34.0434V34.5522L51.6891 36.8218C51.5271 36.9391 51.4459 37.1739 51.5675 37.3305L52.7838 39.3261C52.8243 39.4045 52.9459 39.4825 53.027 39.5218H53.1082C53.1893 39.5218 53.2702 39.4828 53.3514 39.4435L55.9864 37.7217C57.2027 40.3044 59.6349 42.2216 62.473 42.8087V44.2957C61.9866 44.4521 61.6623 44.8826 61.6623 45.3914V47.3479L51.5271 47.3477C50.838 47.3477 50.3108 46.8389 50.3108 46.1737V23.478H78.6893L78.6894 46.174Z" fill="#FEFEFE"/>
<path d="M64.5001 42.2609C61.0136 42.2609 57.811 40.148 56.5541 36.9782C56.2702 36.2346 56.0677 35.4911 56.027 34.7086C55.9865 34.4738 55.9865 34.2391 55.9865 34.0434C55.9865 29.5042 59.7974 25.826 64.5001 25.826C67.3379 25.826 69.9325 27.1564 71.5542 29.426L70.5407 30.0522C69.1621 28.0956 66.9326 27 64.5001 27C60.7299 27 57.5675 29.8174 57.2433 33.4174C57.2026 33.5741 57.2026 33.8088 57.2026 34.0435C57.2026 34.7477 57.3242 35.4522 57.5269 36.1174C58.4593 39.0522 61.2567 41.0871 64.4999 41.0871C68.5135 41.0871 71.7973 37.9176 71.7973 34.0436C71.7973 33.6522 71.7568 33.3001 71.6757 32.909L72.7703 32.2438C72.8919 32.8306 72.9731 33.4567 72.9731 34.0829C73.0135 38.5828 69.2026 42.2609 64.5001 42.2609Z" fill="#FEFEFE"/>
</g>
</svg>
