<svg width="26" height="20" viewBox="0 0 26 20" fill="none" xmlns="http://www.w3.org/2000/svg">
<path d="M8.4913 5.05037C9.04144 4.54608 9.07861 3.69128 8.57431 3.14114C8.07001 2.591 7.21522 2.55384 6.66508 3.05814L8.4913 5.05037ZM6.66508 16.9418C7.21522 17.4461 8.07001 17.4091 8.57431 16.8589C9.07861 16.3088 9.04144 15.4539 8.4913 14.9497L6.66508 16.9418ZM6.66508 3.05814L0.613474 8.60546L2.4397 10.5977L8.4913 5.05037L6.66508 3.05814ZM0.613474 11.3946L6.66508 16.9418L8.4913 14.9497L2.4397 9.4023L0.613474 11.3946ZM0.613474 8.60546C-0.204492 9.35527 -0.204492 10.6447 0.613474 11.3946L2.4397 9.4023C2.79025 9.72369 2.79025 10.2763 2.4397 10.5977L0.613474 8.60546Z" fill="#3BB493"/>
<path d="M17.3032 14.9497C16.753 15.4539 16.7159 16.3088 17.2201 16.8589C17.7244 17.4091 18.5792 17.4461 19.1294 16.9418L17.3032 14.9497ZM19.1294 3.05814C18.5792 2.55384 17.7244 2.591 17.2202 3.14114C16.7159 3.69128 16.753 4.54608 17.3032 5.05037L19.1294 3.05814ZM19.1294 16.9418L25.1811 11.3946L23.3549 9.4023L17.3032 14.9497L19.1294 16.9418ZM25.1811 8.60546L19.1294 3.05814L17.3032 5.05037L23.3549 10.5977L25.1811 8.60546ZM25.1811 11.3946C25.999 10.6447 25.999 9.35527 25.1811 8.60546L23.3549 10.5977C23.0043 10.2763 23.0043 9.72369 23.3549 9.4023L25.1811 11.3946Z" fill="#3BB493"/>
<path d="M16.3918 1.67937C16.5728 0.955348 16.1326 0.221674 15.4086 0.0406639C14.6845 -0.140336 13.9509 0.299866 13.7699 1.02389L16.3918 1.67937ZM9.44569 18.3206C9.26469 19.0447 9.7049 19.7783 10.4289 19.9593C11.153 20.1403 11.8866 19.7001 12.0676 18.9761L9.44569 18.3206ZM13.7699 1.02389L9.44569 18.3206L12.0676 18.9761L16.3918 1.67937L13.7699 1.02389Z" fill="#3BB493"/>
</svg>
