<svg width="429" height="452" viewBox="0 0 429 452" fill="none" xmlns="http://www.w3.org/2000/svg">
<path d="M31.757 170.529H25.6619C19.1211 170.529 12.8483 173.127 8.22329 177.752C3.5983 182.377 1 188.65 1 195.191V330.522C1 337.063 3.5983 343.336 8.22329 347.961C12.8483 352.586 19.1211 355.184 25.6619 355.184H109.285C115.826 355.184 122.099 352.586 126.724 347.961C131.349 343.336 133.947 337.063 133.947 330.522" stroke="#263238" stroke-width="1.10311" stroke-linecap="round" stroke-linejoin="round" stroke-dasharray="4.41 4.41"/>
<path d="M127.132 42.8341V16.103C127.132 12.1033 128.718 8.26687 131.543 5.43547C134.369 2.60408 138.201 1.00893 142.201 1H250.947C254.953 1 258.794 2.5912 261.627 5.42357C264.459 8.25593 266.05 12.0974 266.05 16.103" stroke="#263238" stroke-width="1.10311" stroke-linecap="round" stroke-linejoin="round" stroke-dasharray="4.41 4.41"/>
<path d="M428 78.6966V281.187C428 287.806 425.371 294.155 420.692 298.836C416.012 303.518 409.665 306.15 403.046 306.153H46.8937C40.2744 306.15 33.9272 303.518 29.2477 298.836C24.5682 294.155 21.9395 287.806 21.9395 281.187V78.6966C21.9395 78.1006 21.9395 77.5721 22.0182 76.9423C22.4566 70.6433 25.2676 64.745 29.8843 60.4372C34.5009 56.1295 40.5795 53.733 46.8937 53.7311H403.046C409.367 53.7338 415.452 56.1365 420.07 60.4537C424.687 64.7708 427.494 70.6803 427.921 76.9873C427.977 77.5271 428 78.1119 428 78.6966Z" fill="white" stroke="#263238" stroke-width="1.10311" stroke-linecap="round" stroke-linejoin="round"/>
<path d="M34.085 86.2988H417.125V273.349C417.125 279.552 414.661 285.502 410.274 289.889C405.888 294.275 399.938 296.74 393.734 296.74H57.4873C51.2836 296.74 45.334 294.275 40.9473 289.889C36.5606 285.502 34.0962 279.552 34.0962 273.349V86.2988H34.085Z" fill="#263238"/>
<path opacity="0.2" d="M417.137 86.2988V273.349C417.17 279.518 414.751 285.447 410.413 289.834C406.076 294.22 400.173 296.704 394.004 296.74H57.2175C51.0485 296.704 45.1462 294.22 40.8084 289.834C36.4705 285.447 34.0521 279.518 34.085 273.349V86.2988H417.137Z" fill="white"/>
<path d="M427.921 76.9873H22.0183C22.4567 70.6882 25.2678 64.7899 29.8844 60.4822C34.501 56.1745 40.5796 53.7779 46.8938 53.7761H403.046C409.36 53.7779 415.439 56.1745 420.055 60.4822C424.672 64.7899 427.483 70.6882 427.921 76.9873Z" fill="#25876C" stroke="#263238" stroke-width="1.10311" stroke-miterlimit="10"/>
<path d="M71.8931 65.3367C71.8931 66.2108 71.6339 67.0653 71.1483 67.7921C70.6626 68.5189 69.9724 69.0854 69.1648 69.4199C68.3573 69.7544 67.4686 69.8419 66.6113 69.6714C65.754 69.5008 64.9665 69.0799 64.3484 68.4618C63.7303 67.8437 63.3094 67.0562 63.1389 66.1989C62.9683 65.3416 63.0559 64.453 63.3904 63.6454C63.7249 62.8378 64.2914 62.1476 65.0181 61.662C65.7449 61.1763 66.5994 60.9171 67.4735 60.9171C68.6457 60.9171 69.7698 61.3828 70.5986 62.2116C71.4275 63.0404 71.8931 64.1646 71.8931 65.3367Z" fill="#263238"/>
<path d="M90.5835 65.3367C90.5835 66.2108 90.3243 67.0653 89.8387 67.7921C89.3531 68.5189 88.6628 69.0854 87.8552 69.4199C87.0477 69.7544 86.159 69.8419 85.3017 69.6714C84.4444 69.5008 83.6569 69.0799 83.0388 68.4618C82.4208 67.8437 81.9998 67.0562 81.8293 66.1989C81.6588 65.3416 81.7463 64.453 82.0808 63.6454C82.4153 62.8378 82.9818 62.1476 83.7086 61.662C84.4354 61.1763 85.2898 60.9171 86.164 60.9171C87.3361 60.9171 88.4602 61.3828 89.2891 62.2116C90.1179 63.0404 90.5835 64.1646 90.5835 65.3367Z" fill="#263238"/>
<path d="M104.855 69.7563C107.295 69.7563 109.274 67.7776 109.274 65.3367C109.274 62.8959 107.295 60.9171 104.855 60.9171C102.414 60.9171 100.435 62.8959 100.435 65.3367C100.435 67.7776 102.414 69.7563 104.855 69.7563Z" fill="#263238"/>
<path d="M417.125 86.2988V273.349C417.125 279.552 414.661 285.502 410.274 289.889C405.887 294.275 399.938 296.74 393.734 296.74H57.487C52.0726 296.739 46.8262 294.86 42.6426 291.422C38.459 287.985 35.5974 283.203 34.5458 277.892V277.825C34.2599 276.342 34.1168 274.836 34.1184 273.326V86.2988H417.125Z" stroke="#263238" stroke-width="1.10311" stroke-miterlimit="10"/>
<path class="setting" d="M416.766 115.223C415.126 114.302 413.382 113.581 411.57 113.075L409.467 103.685H400.538L398.458 113.075C396.636 113.572 394.883 114.293 393.24 115.223L385.176 110.061L378.868 116.347L383.939 124.41C383.011 126.055 382.29 127.807 381.792 129.628L372.401 131.709V140.638L381.792 142.741C382.284 144.571 383.006 146.332 383.939 147.982L378.778 156.101L385.098 162.41L393.206 157.248C394.846 158.179 396.595 158.904 398.413 159.407L400.504 168.786H409.4L411.491 159.407C413.304 158.899 415.048 158.174 416.687 157.248L417.103 157.518V114.998L416.766 115.223ZM405.025 147.835C402.743 147.835 400.511 147.158 398.614 145.89C396.716 144.622 395.237 142.819 394.364 140.71C393.491 138.601 393.264 136.281 393.71 134.042C394.156 131.804 395.256 129.748 396.871 128.135C398.485 126.521 400.542 125.423 402.781 124.979C405.02 124.535 407.34 124.766 409.448 125.641C411.557 126.516 413.358 127.996 414.624 129.895C415.891 131.794 416.566 134.026 416.563 136.308C416.563 137.823 416.265 139.323 415.685 140.722C415.105 142.121 414.255 143.393 413.183 144.463C412.112 145.534 410.84 146.382 409.44 146.961C408.04 147.54 406.54 147.837 405.025 147.835Z" fill="#263238"/>
<path class="setting" d="M255.839 124.276V105.45L236.047 101.053C234.979 97.2287 233.469 93.5415 231.549 90.0661L233.944 86.2988H140.492L142.797 89.9649C140.853 93.425 139.342 97.1114 138.299 100.941L118.495 105.349V124.219L138.299 128.639C139.342 132.497 140.853 136.213 142.797 139.705L131.923 156.809L145.249 170.124L162.342 159.238C165.81 161.189 169.499 162.718 173.329 163.793L177.738 183.529H196.518L200.949 163.748C204.767 162.668 208.444 161.139 211.902 159.194L229.007 170.079L242.322 156.764L231.515 139.66C233.431 136.19 234.94 132.511 236.013 128.695L255.839 124.276ZM187.24 139.187C182.429 139.187 177.727 137.761 173.726 135.088C169.726 132.415 166.609 128.616 164.768 124.171C162.926 119.727 162.445 114.836 163.383 110.117C164.322 105.399 166.639 101.065 170.04 97.6629C173.442 94.261 177.776 91.9444 182.495 91.0058C187.213 90.0672 192.104 90.5489 196.549 92.39C200.994 94.2311 204.793 97.3488 207.465 101.349C210.138 105.349 211.565 110.052 211.565 114.863C211.566 118.058 210.938 121.221 209.716 124.173C208.494 127.125 206.703 129.807 204.444 132.066C202.185 134.325 199.503 136.117 196.551 137.339C193.599 138.561 190.435 139.189 187.24 139.187Z" fill="#263238"/>
<path class="setting" d="M130.933 253.545L131.732 238.599L116.246 234.236C115.527 231.165 114.463 228.184 113.075 225.352L122.431 212.217L112.4 201.095L98.388 208.967C95.7096 207.282 92.8454 205.912 89.8525 204.885L87.176 189.006L72.2417 188.32L67.9233 203.85C64.8465 204.54 61.8638 205.597 59.0392 206.999L45.9155 197.654L34.771 207.674L42.7104 221.697C41.0083 224.364 39.6339 227.226 38.617 230.221L34.1187 230.964V251.206L37.4024 252.128C38.0837 255.209 39.1373 258.197 40.54 261.023L34.085 270.076L34.5123 277.825V277.892L41.181 285.28L55.2157 277.352C57.8894 279.072 60.7634 280.458 63.7737 281.479L66.4051 296.729L66.5289 297.37L81.4632 298.157L81.8568 296.729L85.7815 282.638C88.8722 281.946 91.8696 280.889 94.7106 279.489L107.812 288.823L118.945 278.814L111.073 264.78C112.759 262.116 114.115 259.258 115.11 256.267L130.933 253.545ZM91.2694 230.21C88.7112 227.365 85.3666 225.342 81.6586 224.398C77.9506 223.453 74.0458 223.63 70.4383 224.906C66.8308 226.181 63.6825 228.498 61.3918 231.562C59.1012 234.627 57.771 238.303 57.5695 242.124C57.3681 245.945 58.3044 249.74 60.2602 253.029C62.2159 256.317 65.1031 258.952 68.5566 260.6C72.01 262.247 75.8745 262.834 79.6613 262.285C83.448 261.735 86.9868 260.075 89.83 257.515C93.6262 254.085 95.909 249.291 96.1787 244.182C96.4485 239.073 94.6833 234.066 91.2694 230.255V230.21Z" fill="#263238"/>
<path class="setting" d="M250.385 231.267C250.963 228.953 251.269 226.579 251.296 224.194L262.036 218.571L259.067 207.674L246.944 208.236C245.716 206.199 244.256 204.312 242.592 202.613L246.179 191.019L236.395 185.396L228.209 194.325C225.898 193.767 223.534 193.466 221.158 193.425L215.535 182.686L204.649 185.643L205.222 197.778C203.185 199.005 201.298 200.466 199.599 202.13L187.994 198.542L182.371 208.315L191.368 216.49C190.786 218.796 190.488 221.164 190.479 223.541L179.717 229.164L182.686 240.05L194.831 239.477C196.035 241.524 197.489 243.413 199.161 245.1L195.551 256.638L205.346 262.26L213.488 253.399C215.801 253.981 218.176 254.279 220.561 254.287L226.184 265.038L237.07 262.081L236.587 251.712L236.508 249.935C238.573 248.719 240.484 247.258 242.198 245.583L253.793 249.182L258.583 240.815L259.393 239.398L250.385 231.267ZM224.666 237.88C221.875 238.65 218.917 238.573 216.169 237.66C213.421 236.747 211.006 235.038 209.231 232.75C207.455 230.463 206.399 227.699 206.196 224.811C205.993 221.922 206.653 219.038 208.091 216.525C209.53 214.011 211.682 211.982 214.276 210.693C216.869 209.405 219.787 208.916 222.658 209.288C225.53 209.66 228.227 210.877 230.406 212.784C232.586 214.691 234.15 217.202 234.9 219.999C235.9 223.727 235.385 227.699 233.468 231.048C231.551 234.398 228.387 236.854 224.666 237.88Z" fill="#263238"/>
<path class="setting" d="M374.898 250.43L377.372 235.473L362.235 229.389C361.891 226.202 361.163 223.068 360.065 220.055L370.962 207.921L362.145 195.551L347.121 201.927C344.626 199.928 341.9 198.236 339.001 196.889L338.124 180.594L323.167 178.12L317.038 193.189C313.865 193.562 310.744 194.298 307.738 195.382L295.57 184.485L283.256 193.302L289.644 208.315C287.886 210.509 286.359 212.88 285.089 215.388C284.921 215.737 284.741 216.086 284.583 216.434L268.3 217.334L265.814 232.268L268.266 233.258L280.951 238.375C281.297 241.547 282.026 244.666 283.121 247.664L272.202 259.876L281.03 272.247L296.043 265.837C298.529 267.854 301.252 269.561 304.151 270.92L304.994 287.136L319.94 289.61L326.058 274.653C329.238 274.306 332.365 273.573 335.369 272.472L347.514 283.369L359.885 274.541L353.497 259.517C355.532 257.02 357.25 254.281 358.614 251.363L374.898 250.43ZM332.951 249.755C329.805 252.013 326.059 253.287 322.189 253.415C318.318 253.544 314.497 252.522 311.207 250.479C307.917 248.436 305.308 245.463 303.708 241.936C302.108 238.409 301.59 234.487 302.219 230.666C302.848 226.845 304.597 223.296 307.243 220.469C309.889 217.641 313.314 215.662 317.085 214.782C320.857 213.901 324.804 214.158 328.429 215.522C332.054 216.885 335.193 219.292 337.449 222.439C340.472 226.661 341.694 231.911 340.846 237.034C339.998 242.156 337.15 246.732 332.929 249.755H332.951Z" fill="#263238"/>
<path d="M172.205 139.705H54.5969C46.4545 139.705 39.8538 146.305 39.8538 154.448V317.275C39.8538 325.417 46.4545 332.018 54.5969 332.018H172.205C180.347 332.018 186.948 325.417 186.948 317.275V154.448C186.948 146.305 180.347 139.705 172.205 139.705Z" fill="#25876C" stroke="#263238" stroke-width="1.10311" stroke-miterlimit="10"/>
<path opacity="0.2" d="M172.205 139.705H54.5969C46.4545 139.705 39.8538 146.305 39.8538 154.448V317.275C39.8538 325.417 46.4545 332.018 54.5969 332.018H172.205C180.347 332.018 186.948 325.417 186.948 317.275V154.448C186.948 146.305 180.347 139.705 172.205 139.705Z" fill="black"/>
<path d="M200.634 168.977V331.804C200.635 333.741 200.255 335.659 199.515 337.449C198.775 339.239 197.689 340.866 196.32 342.236C194.951 343.606 193.325 344.693 191.535 345.435C189.746 346.177 187.828 346.558 185.891 346.558H68.2832C66.3471 346.557 64.4302 346.174 62.6421 345.432C60.8539 344.69 59.2295 343.602 57.8615 342.232C56.4935 340.862 55.4088 339.236 54.6692 337.447C53.9297 335.658 53.5498 333.74 53.5513 331.804V168.977C53.5513 165.069 55.103 161.321 57.8655 158.556C60.6279 155.792 64.375 154.237 68.2832 154.234H185.891C189.801 154.234 193.551 155.787 196.316 158.552C199.081 161.317 200.634 165.067 200.634 168.977Z" fill="white" stroke="#263238" stroke-width="1.10311" stroke-linecap="round" stroke-linejoin="round"/>
<path d="M200.634 168.977V177.693H53.5513V168.977C53.5513 165.069 55.103 161.321 57.8655 158.556C60.6279 155.792 64.375 154.237 68.2832 154.234H185.891C189.801 154.234 193.551 155.787 196.316 158.552C199.081 161.317 200.634 165.067 200.634 168.977Z" fill="#25876C" stroke="#263238" stroke-width="1.10311" stroke-miterlimit="10"/>
<path class="text" d="M103.572 187.791H67.3835V193.864H103.572V187.791Z" fill="#25876C"/>
<path class="text" d="M103.572 242.209H67.3835V248.282H103.572V242.209Z" fill="#25876C"/>
<path class="text" d="M103.572 291.556H67.3835V297.628H103.572V291.556Z" fill="#25876C"/>
<path class="text" d="M170.158 202.827H67.3835V207.28H170.158V202.827Z" fill="#263238"/>
<path class="text" d="M151.625 211.34H67.3835V215.681H151.625V211.34Z" fill="#263238"/>
<path class="text" d="M162.657 219.718H67.3835V224.059H162.657V219.718Z" fill="#263238"/>
<path class="text" d="M162.657 228.085H67.3835V232.426H162.657V228.085Z" fill="#263238"/>
<path class="text" d="M170.158 252.173H67.3835V256.626H170.158V252.173Z" fill="#263238"/>
<path class="text" d="M151.625 260.686H67.3835V265.027H151.625V260.686Z" fill="#263238"/>
<path class="text" d="M162.657 269.064H67.3835V273.405H162.657V269.064Z" fill="#263238"/>
<path class="text" d="M170.158 306.355H67.3835V310.808H170.158V306.355Z" fill="#263238"/>
<path class="text" d="M151.625 314.879H67.3835V319.22H151.625V314.879Z" fill="#263238"/>
<path class="text" d="M162.657 323.257H67.3835V327.598H162.657V323.257Z" fill="#263238"/>
<path d="M366.407 41.3271V107.137C366.407 109.446 365.952 111.733 365.068 113.866C364.184 115.999 362.888 117.938 361.255 119.57C359.621 121.202 357.682 122.497 355.549 123.379C353.415 124.262 351.128 124.716 348.819 124.714H197.249C194.94 124.716 192.653 124.262 190.519 123.379C188.385 122.497 186.446 121.202 184.813 119.57C183.179 117.938 181.884 115.999 181 113.866C180.116 111.733 179.661 109.446 179.661 107.137V41.3271C179.664 36.6633 181.518 32.1914 184.815 28.8936C188.113 25.5958 192.585 23.7418 197.249 23.7388H348.819C353.483 23.7388 357.957 25.5919 361.256 28.8903C364.554 32.1888 366.407 36.6624 366.407 41.3271Z" fill="white" stroke="#222221" stroke-width="1.10311" stroke-miterlimit="10"/>
<path d="M366.407 41.3271V42.8341H179.661V41.3271C179.664 36.6633 181.518 32.1914 184.815 28.8936C188.113 25.5958 192.585 23.7418 197.249 23.7388H348.819C353.483 23.7388 357.957 25.5919 361.256 28.8903C364.554 32.1888 366.407 36.6624 366.407 41.3271Z" fill="#25876C" stroke="#263238" stroke-width="1.10311" stroke-miterlimit="10"/>
<path d="M207.1 36.4352C206.723 36.8133 206.242 37.071 205.718 37.1757C205.195 37.2804 204.652 37.2273 204.158 37.0232C203.665 36.8191 203.243 36.4732 202.946 36.0292C202.649 35.5852 202.49 35.0632 202.49 34.5291C202.49 33.995 202.649 33.4729 202.946 33.0289C203.243 32.5849 203.665 32.239 204.158 32.0349C204.652 31.8308 205.195 31.7778 205.718 31.8824C206.242 31.9871 206.723 32.2448 207.1 32.6229C207.602 33.1303 207.884 33.8153 207.884 34.5291C207.884 35.2429 207.602 35.9278 207.1 36.4352Z" fill="#263238"/>
<path d="M219.606 36.4352C219.228 36.8133 218.748 37.071 218.224 37.1757C217.7 37.2804 217.157 37.2273 216.663 37.0232C216.17 36.8191 215.748 36.4732 215.451 36.0292C215.154 35.5852 214.996 35.0632 214.996 34.5291C214.996 33.995 215.154 33.4729 215.451 33.0289C215.748 32.5849 216.17 32.239 216.663 32.0349C217.157 31.8308 217.7 31.7778 218.224 31.8824C218.748 31.9871 219.228 32.2448 219.606 32.6229C220.108 33.1303 220.389 33.8153 220.389 34.5291C220.389 35.2429 220.108 35.9278 219.606 36.4352Z" fill="#263238"/>
<path d="M232.111 36.4352C231.734 36.8133 231.253 37.071 230.729 37.1757C230.206 37.2804 229.663 37.2273 229.169 37.0232C228.676 36.8191 228.254 36.4732 227.957 36.0292C227.66 35.5852 227.501 35.0632 227.501 34.5291C227.501 33.995 227.66 33.4729 227.957 33.0289C228.254 32.5849 228.676 32.239 229.169 32.0349C229.663 31.8308 230.206 31.7778 230.729 31.8824C231.253 31.9871 231.734 32.2448 232.111 32.6229C232.613 33.1303 232.895 33.8153 232.895 34.5291C232.895 35.2429 232.613 35.9278 232.111 36.4352Z" fill="#263238"/>
<path d="M252.612 54.9345H191.57V107.699H252.612V54.9345Z" stroke="#263238" stroke-width="1.10311" stroke-linecap="round" stroke-linejoin="round" stroke-dasharray="4.41 4.41"/>
<path class="text" d="M332.288 54.9345H262.036V58.6456H332.288V54.9345Z" fill="#263238"/>
<path class="text" d="M315.925 62.6153H262.036V66.3151H315.925V62.6153Z" fill="#263238"/>
<path class="text" d="M342.274 70.2624H262.036V74.0072H342.274V70.2624Z" fill="#263238"/>
<path class="text" d="M330.365 77.7183H262.036V81.4631H330.365V77.7183Z" fill="#263238"/>
<path d="M371.513 204.66H337.157C333.101 204.66 329.813 207.948 329.813 212.003V232.167C329.813 236.223 333.101 239.51 337.157 239.51H371.513C375.568 239.51 378.856 236.223 378.856 232.167V212.003C378.856 207.948 375.568 204.66 371.513 204.66Z" fill="white" stroke="#263238" stroke-width="1.10311" stroke-linecap="round" stroke-linejoin="round"/>
<path d="M345.636 215.141L336.201 221.056L344.961 228.816" stroke="#263238" stroke-width="1.10311" stroke-linecap="round" stroke-linejoin="round"/>
<path d="M362.819 229.378L371.299 222.158L361.515 215.748" stroke="#263238" stroke-width="1.10311" stroke-linecap="round" stroke-linejoin="round"/>
<path d="M350.225 233.831L357.186 211.992" stroke="#263238" stroke-width="1.10311" stroke-linecap="round" stroke-linejoin="round"/>
<path d="M277.667 423.884C277.667 423.884 245.055 433.229 240.5 434.849C236.362 436.31 225.139 440.246 216.716 439.021C215.903 438.904 215.098 438.731 214.309 438.503C205.774 435.962 201.939 433.589 200.814 428.225C199.69 422.861 203.941 418.902 208.034 416.372C212.127 413.842 234.326 411.199 234.326 411.199L239.691 412.773L277.667 423.884Z" fill="#25876C"/>
<path d="M216.716 439.021C215.903 438.904 215.098 438.731 214.309 438.503C205.774 435.962 201.939 433.589 200.814 428.225C199.69 422.861 203.941 418.902 208.034 416.372C212.127 413.842 234.326 411.199 234.326 411.199L239.691 412.773C234.833 415.022 216.749 416.248 212.802 418.52C208.855 420.791 206.954 425.065 209.282 430.89C210.531 433.926 213.859 436.906 216.716 439.021Z" fill="white"/>
<path d="M272.764 425.211C272.764 425.211 248.271 431.553 238.555 435.613C228.838 439.673 210.317 441.45 203.693 433.083C197.069 424.716 202.928 417.496 209.529 415.888C216.131 414.28 229.479 411.75 236.766 412.773" stroke="#263238" stroke-width="1.10311" stroke-linecap="round" stroke-linejoin="round"/>
<path d="M217.199 438.582C217.199 438.582 204.739 431.745 208.877 422.163C211.936 415.101 228.557 416.63 236.789 412.773" stroke="#263238" stroke-width="1.10311" stroke-linecap="round" stroke-linejoin="round"/>
<path d="M377 440.539C376.663 443.913 375.482 447.073 372.108 449.063C369.859 450.39 366.666 451.177 362.089 451.132C350.652 450.986 329.15 442.81 329.15 442.81L309.02 431.677L319.49 415.112L322.357 410.614L329.757 412.278C329.757 412.278 335.886 415.753 342.049 418.52C348.211 421.286 363.179 421.893 368.454 426.133C373.728 430.373 377.574 434.983 377 440.539Z" fill="#25876C"/>
<path d="M377.001 440.539C376.663 443.913 375.482 447.073 372.109 449.063C373.081 445.747 372.882 442.197 371.546 439.009C369.297 433.96 361.976 429.507 352.35 428.765C342.724 428.022 335.358 423.524 331.5 421.511C328.487 419.948 322.133 416.529 319.49 415.112L322.358 410.614L329.757 412.278C329.757 412.278 335.886 415.753 342.049 418.52C348.212 421.286 363.18 421.893 368.454 426.133C373.728 430.373 377.574 434.983 377.001 440.539Z" fill="white"/>
<path d="M313.485 434.804C327.975 443.226 343.989 448.696 360.604 450.896C364.27 451.335 368.533 451.402 370.984 448.647C371.636 447.851 372.122 446.933 372.412 445.945C372.701 444.958 372.79 443.923 372.671 442.901C372.232 437.728 367.88 433.634 363.112 431.576C358.344 429.518 353.092 429.046 348.02 427.91C342.976 426.773 338.1 424.989 333.513 422.602C329.87 420.702 326.35 418.396 322.335 417.541C318.32 416.687 313.541 417.721 311.393 421.23" stroke="#263238" stroke-width="1.10311" stroke-linecap="round" stroke-linejoin="round"/>
<path d="M369.635 450.053C371.519 449.151 373.166 447.821 374.445 446.169C375.724 444.517 376.599 442.589 377.001 440.539C377.732 435.669 374.954 430.766 371.052 427.775C367.15 424.784 362.258 423.367 357.433 422.366C352.609 421.365 347.672 420.69 343.05 418.857C335.999 416.091 329.038 410.648 321.683 412.593" stroke="#263238" stroke-width="1.10311" stroke-linecap="round" stroke-linejoin="round"/>
<path d="M336.201 260.585L302.138 247.63L301.71 247.461C301.71 247.461 301.834 246.561 301.935 245.212C302.149 242.491 302.261 238.06 300.979 236.564C299.079 234.315 293.704 236.204 288.452 233.798C283.2 231.391 273.495 235.698 273.495 235.698C273.495 235.698 266.478 234.405 263.374 239.465C261.799 243.548 262.339 249.587 262.339 249.587L261.698 249.812C257.638 251.33 235.552 259.64 230.885 262.98C225.723 266.635 220.01 304.162 218.177 315.183C216.344 326.204 213.083 336.134 214.736 339.923C216.389 343.713 240.118 361.988 253.77 366.7C267.422 371.411 315.835 370.073 315.835 370.073C315.835 370.073 316.622 369.86 318.028 369.41C326.215 366.778 355.263 355.915 370.68 330.41C370.703 330.455 355.769 281.502 336.201 260.585ZM244.166 323.707C241.658 325.484 243.042 332.366 243.042 332.366L238.779 328.61L249.485 302.284L254.051 322.526C254.051 322.526 246.674 321.942 244.166 323.707ZM329.814 340.43C328.633 341.037 333.187 328.385 331.028 325.518C328.869 322.65 322.358 322.92 322.358 322.92L322.909 319.467L326.766 299.675L328.048 298.157C328.048 298.157 341.295 320.862 343.668 328.869C343.668 328.891 329.229 340.43 329.814 340.43Z" fill="#25876C"/>
<path d="M271.887 178.48L254.299 197.148C254.299 197.148 251.881 199.296 252.837 204.705C253.793 210.114 256.042 214.826 257.74 215.141C259.084 215.376 260.446 215.497 261.811 215.501C261.811 215.501 265.578 223.665 268.255 226.87C268.255 226.87 269.177 239.477 268.682 242.974C268.682 242.974 275.002 248.496 280.951 249.193C286.9 249.89 296.088 240.781 296.088 240.781L298.337 229.625C298.337 229.625 303.735 221.439 304.095 219.257C304.454 217.075 306.929 217.637 308.143 216.558C309.358 215.478 312.158 210.676 312.641 206.133C313.125 201.59 313.136 196.372 307.862 197.901C303.285 196.675 306.153 187.004 306.153 187.004L298.112 179.919L271.887 178.48Z" fill="#FFA8A7"/>
<path opacity="0.2" d="M336.201 260.585L302.138 247.63L301.711 247.461C301.711 247.461 301.834 246.561 301.936 245.212L301.227 249.632L296.189 256.469C301.575 258.452 306.833 260.765 311.933 263.396C314.375 264.704 316.367 266.716 317.65 269.171C318.934 271.626 319.449 274.41 319.13 277.161L312.855 330.859L310.28 361.346L318.051 369.41C326.238 366.778 355.285 355.915 370.703 330.41C370.703 330.455 355.769 281.502 336.201 260.585ZM329.814 340.429C328.633 341.037 333.187 328.385 331.028 325.518C328.869 322.65 322.358 322.92 322.358 322.92L322.909 319.467L326.766 299.675L328.048 298.157C328.048 298.157 341.296 320.862 343.668 328.869C343.668 328.891 329.229 340.429 329.814 340.429Z" fill="black"/>
<path opacity="0.2" d="M256.311 325.518L251.014 307.817C251.014 307.817 241.512 275.418 235.001 267.434L236.71 290.217C236.71 290.217 231.087 317.432 225.948 325.518C220.808 333.603 219.661 335.639 225.948 335.639C232.234 335.639 247.539 347.829 247.539 347.829L246.359 337.708L256.311 325.518ZM242.962 332.366L238.7 328.61L249.406 302.284L253.972 322.526C253.972 322.526 246.64 321.975 244.132 323.741C241.624 325.506 242.962 332.366 242.962 332.366Z" fill="black"/>
<path d="M268.254 226.87C268.254 226.87 269.221 236.418 268.254 240.781" stroke="#263238" stroke-width="1.10311" stroke-linecap="round" stroke-linejoin="round"/>
<path d="M297.066 239.499C297.077 236.429 297.431 233.37 298.123 230.379" stroke="#263238" stroke-width="1.10311" stroke-linecap="round" stroke-linejoin="round"/>
<path d="M299.619 185.598C299.619 185.598 305.4 192.852 305.096 198.34C304.792 203.828 304.365 210.328 304.511 216.693C304.657 223.058 294.289 236.395 288.958 237.576C283.628 238.757 279.04 239.061 275.632 235.653C272.225 232.246 268.817 227.511 264.386 221.439C259.956 215.366 261.013 202.04 261.013 202.04" stroke="#263238" stroke-width="1.10311" stroke-linecap="round" stroke-linejoin="round"/>
<path d="M285.697 207.112C285.344 209.104 285.194 211.127 285.247 213.15C285.131 214.855 285.661 216.542 286.731 217.874C287.372 218.526 288.294 219.054 288.418 219.954C288.415 220.359 288.302 220.756 288.093 221.102C287.883 221.448 287.583 221.732 287.226 221.922C286.505 222.286 285.81 222.699 285.146 223.159" stroke="#263238" stroke-width="1.10311" stroke-linecap="round" stroke-linejoin="round"/>
<path d="M276.554 223.856C276.554 223.856 277.217 228.163 282.987 229.063" stroke="#263238" stroke-width="1.10311" stroke-linecap="round" stroke-linejoin="round"/>
<path d="M277.15 210.395C277.15 211.644 276.61 212.644 275.946 212.644C275.283 212.644 274.743 211.644 274.743 210.395C274.743 209.147 275.283 208.146 275.946 208.146C276.61 208.146 277.15 209.158 277.15 210.395Z" fill="#263238"/>
<path d="M294.367 210.935C294.367 212.183 293.827 213.184 293.164 213.184C292.5 213.184 291.961 212.172 291.961 210.935C291.961 209.698 292.5 208.686 293.164 208.686C293.827 208.686 294.367 209.687 294.367 210.935Z" fill="#263238"/>
<path d="M290.892 205.481C290.892 205.481 296.515 199.858 301.227 206.133" stroke="#263238" stroke-width="2.20621" stroke-linecap="round" stroke-linejoin="round"/>
<path d="M279.05 205.593C279.05 205.593 275.497 201.612 269.896 205.593" stroke="#263238" stroke-width="2.20621" stroke-linecap="round" stroke-linejoin="round"/>
<path d="M268.681 232.178C268.681 232.178 272.111 241.625 279.77 244.312C287.428 247 297.594 233.067 297.594 233.067L297.066 231.256C297.066 231.256 290.397 239.915 282.986 238.442C275.575 236.969 268.254 226.915 268.254 226.915L268.681 232.178Z" fill="#263238"/>
<path d="M261.811 215.141C261.811 215.141 257.245 216.749 256.031 213.195C254.816 209.642 250.655 200.274 254.299 197.148C257.942 194.021 260.866 201.275 260.866 201.275" stroke="#263238" stroke-width="1.10311" stroke-linecap="round" stroke-linejoin="round"/>
<path d="M304.5 217.075C304.5 217.075 308.739 217.93 309.954 214.376C311.168 210.823 315.329 201.455 311.686 198.329C308.042 195.202 305.118 202.456 305.118 202.456" stroke="#263238" stroke-width="1.10311" stroke-linecap="round" stroke-linejoin="round"/>
<path d="M260.866 210.395C262.452 210.145 263.884 209.301 264.87 208.034C265.472 206.921 265.854 205.703 265.994 204.446C266.412 202.055 266.623 199.632 266.624 197.204C266.575 196.256 266.662 195.305 266.883 194.381C267.22 193.452 267.74 192.599 268.412 191.874C269.998 190.007 271.921 188.432 273.439 186.498C274.253 185.585 274.872 184.516 275.259 183.356C275.645 182.196 275.791 180.969 275.688 179.751C279.167 182.619 283.233 184.691 287.598 185.819C291.964 186.948 296.524 187.107 300.957 186.284C308.998 184.71 316.701 177.659 315.768 168.797C315.592 167.312 314.954 165.918 313.946 164.813C312.938 163.708 311.608 162.946 310.145 162.635C306.175 161.645 302.61 163.759 299.012 165.12C292.455 167.594 286.034 163.343 279.41 162.635C273.788 162.016 266.782 162.725 263.835 168.359C263.835 168.359 253.714 169.551 249.216 177.918C244.717 186.284 253.23 197.856 253.23 197.856C253.23 197.856 256.604 193.718 261.024 202.085L260.866 210.395Z" fill="#263238"/>
<path d="M300.316 183.462C300.316 183.462 297.685 197.182 304.556 203.828C304.556 203.828 306.063 199.701 307.581 198.688C308.675 196.254 309.139 193.582 308.929 190.921C308.718 188.26 307.841 185.694 306.378 183.462C301.294 175.477 300.316 183.462 300.316 183.462Z" fill="#263238"/>
<path opacity="0.2" d="M312.844 167.853C312.241 169.725 311.218 171.434 309.854 172.851C308.49 174.268 306.82 175.355 304.972 176.028C295.436 179.919 286.18 175.612 276.622 174.769C268.828 174.072 260.225 181.111 259.674 189.118" stroke="white" stroke-width="1.10311" stroke-linecap="round" stroke-linejoin="round"/>
<path opacity="0.2" d="M253.793 187.004C253.91 183.844 254.924 180.783 256.716 178.179C258.508 175.574 261.005 173.533 263.914 172.295" stroke="white" stroke-width="1.10311" stroke-linecap="round" stroke-linejoin="round"/>
<path d="M266.05 239.499C270.244 243.87 275.304 247.317 280.906 249.62C280.906 249.62 292.32 246.303 298.123 238.375" stroke="#263238" stroke-width="1.10311" stroke-linecap="round" stroke-linejoin="round"/>
<path d="M277.715 219.552C282.785 217.227 285.01 211.232 282.684 206.163C280.359 201.093 274.364 198.869 269.295 201.194C264.225 203.519 262.001 209.514 264.326 214.583C266.651 219.653 272.646 221.877 277.715 219.552Z" stroke="#263238" stroke-width="1.10311" stroke-linecap="round" stroke-linejoin="round"/>
<path d="M297.284 220.441C302.82 219.761 306.756 214.723 306.077 209.187C305.397 203.651 300.358 199.715 294.822 200.394C289.287 201.074 285.35 206.113 286.03 211.648C286.709 217.184 291.748 221.121 297.284 220.441Z" stroke="#263238" stroke-width="1.10311" stroke-linecap="round" stroke-linejoin="round"/>
<path d="M268.255 235.732C267.232 236 266.273 236.472 265.436 237.12C264.6 237.767 263.902 238.576 263.385 239.499C261.597 242.648 262.677 252.555 262.677 252.555C262.677 252.555 271.91 261.687 279.77 265.544L282.087 252.51L285.686 265.544C285.686 265.544 297.853 256.941 301.227 249.665C301.227 249.665 302.352 241.175 301.227 238.42C300.971 237.654 300.485 236.987 299.834 236.51C299.184 236.032 298.401 235.769 297.595 235.754" stroke="#263238" stroke-width="1.10311" stroke-linecap="round" stroke-linejoin="round"/>
<path d="M253.793 322.931C253.793 322.931 250.183 298.753 245.381 288.89" stroke="#263238" stroke-width="1.10311" stroke-linecap="round" stroke-linejoin="round"/>
<path d="M235.001 267.434C237.797 271.407 240.293 275.583 242.468 279.928" stroke="#263238" stroke-width="1.10311" stroke-linecap="round" stroke-linejoin="round"/>
<path d="M329.813 285.483C330.783 281.44 332.111 277.492 333.783 273.686" stroke="#263238" stroke-width="1.10311" stroke-linecap="round" stroke-linejoin="round"/>
<path d="M322.358 322.931C322.358 322.931 324.955 306.355 328.059 292.703" stroke="#263238" stroke-width="1.10311" stroke-linecap="round" stroke-linejoin="round"/>
<path d="M326.766 299.653C329.277 296.323 332.808 293.906 336.82 292.77" stroke="#263238" stroke-width="1.10311" stroke-linecap="round" stroke-linejoin="round"/>
<path d="M301.722 247.461C301.722 247.461 322.673 255.839 336.201 260.596C336.201 260.596 352.845 276.239 370.692 330.455C370.692 330.455 354.341 357.962 323.235 366.778" stroke="#263238" stroke-width="1.10311" stroke-linecap="round" stroke-linejoin="round"/>
<path d="M328.633 341.408L343.668 328.891C343.668 328.891 351.619 322.852 359.884 326.98" stroke="#263238" stroke-width="1.10311" stroke-linecap="round" stroke-linejoin="round"/>
<path d="M328.06 298.157C328.06 298.157 340.486 316.521 343.669 328.891" stroke="#263238" stroke-width="1.10311" stroke-linecap="round" stroke-linejoin="round"/>
<path d="M243.132 333.064L238.735 328.891C238.735 328.891 232.212 327.767 224.812 332.704" stroke="#263238" stroke-width="1.10311" stroke-linecap="round" stroke-linejoin="round"/>
<path d="M238.734 328.891C238.734 328.891 244.2 310.898 249.587 301.688" stroke="#263238" stroke-width="1.10311" stroke-linecap="round" stroke-linejoin="round"/>
<path d="M262.362 249.665C262.362 249.665 232.212 260.978 229.254 264.285C226.297 267.591 215.062 330.848 214.759 338.09C214.5 344.568 237.981 359.109 249.62 365.237" stroke="#263238" stroke-width="1.10311" stroke-linecap="round" stroke-linejoin="round"/>
<path d="M284.909 271.043C284.909 271.437 284.792 271.822 284.574 272.149C284.355 272.477 284.044 272.732 283.68 272.882C283.317 273.033 282.917 273.072 282.53 272.996C282.144 272.919 281.79 272.729 281.511 272.451C281.233 272.172 281.043 271.818 280.966 271.432C280.89 271.046 280.929 270.645 281.08 270.282C281.23 269.918 281.486 269.607 281.813 269.388C282.14 269.17 282.525 269.053 282.919 269.053C283.181 269.051 283.44 269.102 283.682 269.201C283.924 269.301 284.144 269.447 284.33 269.633C284.515 269.818 284.661 270.038 284.761 270.28C284.86 270.522 284.911 270.782 284.909 271.043Z" fill="#263238"/>
<path d="M319.793 377.001H251.195C250.768 377.001 250.359 376.831 250.057 376.53C249.756 376.228 249.586 375.819 249.586 375.392C249.586 374.966 249.756 374.557 250.057 374.255C250.359 373.954 250.768 373.784 251.195 373.784H319.793C320.22 373.784 320.629 373.954 320.931 374.255C321.232 374.557 321.402 374.966 321.402 375.392C321.402 375.819 321.232 376.228 320.931 376.53C320.629 376.831 320.22 377.001 319.793 377.001Z" fill="#263238"/>
<path d="M322.2 371.625L331.388 328.442C331.531 327.772 331.522 327.079 331.362 326.413C331.202 325.748 330.895 325.126 330.464 324.595C330.032 324.063 329.487 323.635 328.869 323.341C328.251 323.047 327.575 322.896 326.89 322.897H246.708C246.029 322.898 245.359 323.048 244.745 323.339C244.132 323.629 243.591 324.052 243.16 324.577C242.73 325.102 242.422 325.716 242.257 326.374C242.093 327.033 242.077 327.72 242.21 328.385L250.453 370.129C250.655 371.155 251.201 372.08 252 372.753C252.8 373.426 253.805 373.805 254.85 373.829L317.59 375.269C318.662 375.293 319.709 374.942 320.551 374.277C321.392 373.612 321.976 372.674 322.2 371.625Z" fill="white" stroke="#263238" stroke-width="1.10311" stroke-linecap="round" stroke-linejoin="round"/>
<path class="circle" d="M292.939 347.818C292.937 349.083 292.56 350.319 291.855 351.37C291.151 352.421 290.151 353.239 288.981 353.722C287.812 354.204 286.526 354.329 285.285 354.081C284.045 353.833 282.906 353.223 282.012 352.327C281.118 351.432 280.51 350.292 280.264 349.051C280.018 347.81 280.145 346.524 280.63 345.355C281.114 344.187 281.935 343.188 282.987 342.485C284.039 341.783 285.275 341.408 286.54 341.408C287.382 341.408 288.215 341.574 288.992 341.896C289.769 342.218 290.475 342.691 291.069 343.286C291.663 343.881 292.134 344.588 292.455 345.366C292.776 346.143 292.941 346.977 292.939 347.818Z" fill="#263238"/>
<path d="M305.523 327.025H315.048" stroke="#263238" stroke-width="1.10311" stroke-linecap="round" stroke-linejoin="round"/>
<path d="M260.034 327.025H296.189" stroke="#263238" stroke-width="1.10311" stroke-linecap="round" stroke-linejoin="round"/>
<path d="M322.358 417.474L315.048 436.659C315.048 436.659 296.403 431.958 272.528 427.066C247.551 421.95 221.473 415.326 207.944 391.586C206.302 388.696 205.2 385.277 205.976 382.039C207.921 373.841 218.594 371.614 225.622 370.793C230.041 370.315 234.481 370.067 238.926 370.051C241.175 370.051 248.653 368.825 250.464 370.163C253.184 372.148 256.088 373.869 259.134 375.302C263.127 377.001 321.402 373.784 321.402 373.784C322.416 371.573 323.036 369.202 323.235 366.778C332.4 362.122 353.599 358.186 362.595 359.93C376.686 362.662 384.907 370.883 383.343 379.497C381.78 388.111 350.652 411.21 322.358 417.474Z" fill="#263238"/>
<path d="M322.358 417.474C322.358 417.474 304.623 412.773 290.139 402.989C275.654 393.206 264.341 381.847 244.155 384.198" stroke="white" stroke-width="1.10311" stroke-linecap="round" stroke-linejoin="round"/>
<path d="M286.822 400.684C295.976 398.052 302.689 392.126 310.033 386.447C317.778 380.23 326.096 374.763 334.874 370.118" stroke="white" stroke-width="1.10311" stroke-linecap="round" stroke-linejoin="round"/>
<path d="M283.594 211.992H286.281" stroke="#263238" stroke-width="1.10311" stroke-linecap="round" stroke-linejoin="round"/>
</svg>
