<svg width="48" height="48" viewBox="0 0 48 48" fill="none" xmlns="http://www.w3.org/2000/svg">
<path d="M48 6V42C48 45.3067 45.3067 48 42 48H6C2.69333 48 0 45.3067 0 42V6C0 2.69333 2.69333 0 6 0H42C45.3067 0 48 2.69333 48 6Z" fill="url(#paint0_linear_150_2813)"/>
<path d="M39.3346 23.0093C39.2893 22.9267 39.228 22.8547 39.18 22.7733C40.252 20.54 40.2893 17.684 39.06 15.3067C37.5933 12.3053 34.2653 10.1907 30.8093 10.224C30.7146 10.2227 30.6213 10.2387 30.528 10.24C29.1293 8.196 26.6746 6.736 24.0026 6.61067C20.6706 6.38 17.1746 8.20534 15.476 11.2147C15.428 11.2947 15.3946 11.384 15.3493 11.4667C12.88 11.656 10.388 13.0507 8.94398 15.304C7.07864 18.0747 6.91064 22.0147 8.66798 24.9907C8.71331 25.0733 8.77464 25.1453 8.82264 25.2267C7.75064 27.46 7.71331 30.316 8.94264 32.6933C10.4093 35.6947 13.7373 37.8093 17.1933 37.776C17.288 37.7773 17.3813 37.7613 17.4746 37.76C18.8733 39.804 21.328 41.264 24 41.3893C27.332 41.62 30.828 39.7947 32.5266 36.7853C32.5746 36.7053 32.608 36.616 32.6533 36.5333C35.1226 36.344 37.6146 34.9493 39.0586 32.696C40.924 29.9253 41.092 25.9853 39.3346 23.0093ZM36.1666 16.9773C36.908 18.016 37.3426 19.3 37.424 20.6747C36.8933 20.204 36.324 19.7773 35.7133 19.4333C34.204 18.6467 32.484 18.2147 30.8053 18.3333C28.4746 18.42 26.3173 19.5627 24.8786 21.2067C24.664 21.1387 24.4453 21.1027 24.2266 21.0867C24.2546 19.5627 24.7066 18.1493 25.516 17.016C26.7333 15.2533 28.768 14.228 30.804 14.212C32.8706 14.1627 34.8946 15.2147 36.1666 16.9773ZM18.924 13.212C19.916 11.3987 21.8386 10.172 24 9.952C25.2706 9.82933 26.6 10.0947 27.8306 10.712C27.1573 10.936 26.504 11.216 25.9 11.5733C24.464 12.4867 23.2293 13.76 22.4933 15.2733C21.4013 17.3387 21.3133 19.7827 22.0226 21.852C21.8626 21.9987 21.72 22.164 21.5933 22.3493C20.2853 21.5627 19.2866 20.464 18.7093 19.1947C17.7906 17.2573 17.92 14.984 18.924 13.212ZM11.8346 16.9747C12.364 15.8133 13.2573 14.7947 14.408 14.0373C14.2653 14.732 14.18 15.4387 14.188 16.14C14.2613 17.8413 14.7466 19.5453 15.6893 20.94C16.9306 22.9173 19.0013 24.2147 21.1466 24.6373C21.1946 24.8533 21.26 25.0653 21.356 25.2653C20.024 26.0013 18.576 26.3133 17.192 26.18C15.056 26.0067 13.152 24.7573 12.12 23.0027C11.0453 21.236 10.944 18.9573 11.8346 16.9747ZM11.8333 31.0227C11.092 29.984 10.6573 28.7 10.576 27.3253C11.1066 27.796 11.676 28.2227 12.2866 28.5667C13.796 29.3533 15.516 29.7853 17.1946 29.6667C19.5253 29.58 21.6826 28.4373 23.1213 26.7933C23.336 26.8613 23.5546 26.8973 23.7733 26.9133C23.7453 28.4373 23.2933 29.8507 22.484 30.984C21.2666 32.7467 19.232 33.772 17.196 33.788C15.1293 33.8373 13.1053 32.7853 11.8333 31.0227ZM29.076 34.788C28.084 36.6013 26.1613 37.828 24 38.048C22.7293 38.1707 21.4 37.9053 20.1693 37.288C20.8426 37.064 21.496 36.784 22.1 36.4267C23.536 35.5133 24.7706 34.24 25.5066 32.7267C26.5986 30.6613 26.6866 28.2173 25.9773 26.148C26.1373 26.0013 26.28 25.836 26.4066 25.652C27.7146 26.4387 28.7133 27.5373 29.2906 28.8067C30.2093 30.7427 30.08 33.016 29.076 34.788ZM36.1653 31.0253C35.636 32.1867 34.7426 33.2053 33.592 33.9627C33.7346 33.268 33.82 32.5613 33.812 31.86C33.7386 30.16 33.2533 28.4547 32.3106 27.06C31.0693 25.0827 28.9986 23.7853 26.8533 23.3627C26.8053 23.1467 26.74 22.9347 26.644 22.7347C27.976 21.9987 29.424 21.6867 30.808 21.82C32.944 21.9933 34.848 23.2427 35.88 24.9973C36.9546 26.764 37.056 29.0427 36.1653 31.0253Z" fill="#FEFEFE"/>
<defs>
<linearGradient id="paint0_linear_150_2813" x1="19.1933" y1="-5.82133" x2="31.7507" y2="72.0933" gradientUnits="userSpaceOnUse">
<stop stop-color="#F44F5A"/>
<stop offset="0.443" stop-color="#EE3D4A"/>
<stop offset="1" stop-color="#E52030"/>
</linearGradient>
</defs>
</svg>
