<svg width="48" height="48" viewBox="0 0 48 48" fill="none" xmlns="http://www.w3.org/2000/svg">
<path d="M48 6V42C48 45.3067 45.3067 48 42 48H6C2.69333 48 0 45.3067 0 42V6C0 2.69333 2.69333 0 6 0H42C45.3067 0 48 2.69333 48 6Z" fill="url(#paint0_linear_150_2822)"/>
<path opacity="0.07" d="M32.341 39.9386C31.9096 39.9885 30.9799 39.8227 30.9799 39.0939V32.9271C30.9799 31.7648 30.6314 30.6417 29.9854 29.6844C36.2701 28.6676 39.2069 25.3356 39.2069 19.2591C39.2069 16.8823 38.478 14.803 37.0404 13.0732C37.186 12.6854 37.288 12.2764 37.3464 11.8546C37.5324 10.4988 37.3294 9.63819 37.1509 8.8785L37.1222 8.75525C36.9331 7.94669 36.71 7.37719 36.7004 7.35381L36.5825 7.05419L36.2606 7.02019C36.2606 7.02019 36.0714 7 35.7835 7C35.3787 7 34.7805 7.03931 34.2259 7.22844L34.0176 7.29856C33.259 7.55463 32.5418 7.79581 31.5516 8.38656C31.1988 8.59694 30.8057 8.8445 30.3817 9.12394C28.7529 8.69788 26.9902 8.48113 25.1362 8.48113C23.2641 8.48113 21.4865 8.69894 19.846 9.12925C19.4178 8.84769 19.0226 8.59906 18.6677 8.38656C17.6774 7.79581 16.9602 7.55356 16.2016 7.29856L15.9934 7.22844C15.4398 7.04038 14.8406 7 14.4357 7C14.1478 7 13.9587 7.02019 13.9587 7.02019L13.6378 7.05419L13.5177 7.35488C13.5082 7.37825 13.2851 7.94775 13.0959 8.75631L13.0672 8.87956C12.8877 9.63925 12.6847 10.4988 12.8717 11.8546C12.9312 12.287 13.0375 12.7056 13.1884 13.1019C11.7784 14.8232 11.0644 16.8919 11.0644 19.2591C11.0644 25.3186 14.0033 28.6495 20.2933 29.678C19.8736 30.3049 19.5804 31.0114 19.4295 31.7648C19.0789 31.9029 18.7612 31.9943 18.4828 32.0368C18.2034 32.0793 17.9122 32.1005 17.6179 32.1005C16.8848 32.1005 16.1804 31.9634 15.8223 31.7509C15.3548 31.4736 14.6992 30.7798 14.1521 29.9819C13.7802 29.44 13.0396 28.4763 12.2523 28.1172C11.5776 27.8091 10.8732 27.6316 10.3175 27.6316C10.2006 27.6316 10.0944 27.6401 10.0009 27.655C9.612 27.7166 9.29112 27.9228 9.12112 28.2224C8.98512 28.4604 8.96281 28.7356 9.05844 28.9746C9.24862 29.4506 9.95306 29.8778 10.2474 30.0393C10.6033 30.2348 11.2238 30.8298 11.5797 31.4035C11.8464 31.8328 11.9729 32.1441 12.1333 32.5372C12.2236 32.7593 12.3224 33.0015 12.4563 33.2937C12.808 34.0576 13.8939 34.8577 14.4804 35.2094C15.2815 35.6896 16.769 35.8235 17.585 35.8596L17.7029 35.8617C18.0206 35.8617 18.5529 35.8139 19.2914 35.7183V39.0939C19.2914 39.9216 18.2384 39.9545 17.9802 39.9545C17.9473 39.9545 18.5147 40.15 18.5147 40.15C20.6004 40.8342 22.8221 41.2168 25.1362 41.2168C27.4503 41.2168 29.672 40.8343 31.7566 40.1511C31.7566 40.1511 32.3739 39.9343 32.341 39.9386Z" fill="black"/>
<path d="M38.1426 18.728C38.1426 16.2736 37.3118 14.2379 35.8933 12.642C36.0474 12.2967 36.2078 11.8334 36.2875 11.2512C36.4703 9.92306 36.2546 9.12619 36.0718 8.34631C35.8891 7.56644 35.6734 7.01819 35.6734 7.01819C35.6734 7.01819 34.6938 6.91831 33.8639 7.20094C33.0341 7.48356 32.3201 7.69925 31.2906 8.31338C30.8093 8.60025 30.3248 8.91475 29.9412 9.16975C28.3018 8.715 26.4987 8.48125 24.6021 8.48125C22.6886 8.48125 20.8696 8.71606 19.2184 9.174C18.8338 8.91794 18.3461 8.60131 17.8616 8.31231C16.8321 7.69819 16.1181 7.4825 15.2883 7.19988C14.4584 6.91725 13.4788 7.01713 13.4788 7.01713C13.4788 7.01713 13.2631 7.56538 13.0804 8.34525C12.8976 9.12513 12.6819 9.922 12.8647 11.2501C12.9465 11.8473 13.1123 12.319 13.2706 12.6664C11.8787 14.2528 11.0627 16.2758 11.0627 18.7269C11.0627 25.0839 14.4967 27.9856 20.7538 28.7516C20.0238 29.523 19.534 30.5111 19.3693 31.6108C18.9581 31.7914 18.4843 31.9614 18.0284 32.0294C16.8554 32.2069 15.6155 32.0294 15.0184 31.6756C14.4213 31.3218 13.7126 30.5249 13.1813 29.7493C12.7329 29.0948 12.0859 28.3351 11.4994 28.0674C10.7248 27.7136 9.97151 27.5808 9.55182 27.6466C9.13107 27.7136 8.93239 28.0228 9.02057 28.2448C9.10876 28.4658 9.52951 28.7984 9.97257 29.0417C10.4156 29.285 11.102 29.9491 11.5004 30.5908C11.9446 31.3069 12.0317 31.7203 12.4078 32.5384C12.6724 33.1143 13.5776 33.8336 14.2226 34.2203C14.7761 34.5529 15.8822 34.742 17.0786 34.7962C17.4919 34.8153 18.4683 34.6942 19.2918 34.5773V38.5617C19.2918 39.2406 18.6702 39.757 18.0263 39.638C20.0929 40.3329 22.2997 40.6856 24.6021 40.6856C26.9035 40.6856 29.1103 40.3329 31.179 39.6401C30.5362 39.7581 29.9146 39.2417 29.9146 38.5627V32.396C29.9146 30.9839 29.3547 29.7079 28.4558 28.7569C34.6672 28.0111 38.1426 25.1784 38.1426 18.728ZM11.0436 28.7081C10.8799 28.6241 10.7918 28.469 10.847 28.3596C10.9023 28.2501 11.0808 28.2299 11.2444 28.3139C11.408 28.3978 11.4962 28.5529 11.4409 28.6624C11.3857 28.7718 11.2072 28.792 11.0436 28.7081ZM12.3313 29.5102C12.2453 29.6037 12.0604 29.574 11.918 29.4444C11.7756 29.3147 11.7299 29.1331 11.816 29.0396C11.9021 28.9461 12.0869 28.9758 12.2293 29.1054C12.3717 29.2351 12.4174 29.4167 12.3313 29.5102ZM13.1324 30.8384C13.0241 30.9149 12.8403 30.8437 12.7223 30.679C12.6044 30.5143 12.5969 30.3177 12.7053 30.2412C12.8137 30.1647 12.9975 30.2359 13.1154 30.4006C13.2323 30.5653 13.2408 30.7619 13.1324 30.8384ZM14.2831 31.8382C14.2098 31.9572 14.0016 31.9625 13.8188 31.8509C13.6361 31.7394 13.5468 31.5524 13.6201 31.4334C13.6934 31.3144 13.9017 31.3091 14.0844 31.4206C14.2672 31.5322 14.3564 31.7192 14.2831 31.8382ZM15.3711 32.8168C15.1448 32.7891 14.9769 32.6478 14.9961 32.5012C15.0141 32.3546 15.2128 32.2589 15.4381 32.2866C15.6644 32.3142 15.8323 32.4555 15.8131 32.6021C15.7951 32.7477 15.5974 32.8444 15.3711 32.8168ZM17.1253 33.0707C16.8841 33.0569 16.6961 32.9187 16.7056 32.7636C16.7152 32.6085 16.9181 32.4927 17.1593 32.5065C17.4005 32.5203 17.5886 32.6584 17.579 32.8136C17.5694 32.9698 17.3665 33.0845 17.1253 33.0707ZM18.7807 32.9049C18.5236 32.9049 18.3153 32.7711 18.3153 32.6064C18.3153 32.4417 18.5236 32.3078 18.7807 32.3078C19.0378 32.3078 19.2461 32.4417 19.2461 32.6064C19.2461 32.7711 19.0368 32.9049 18.7807 32.9049Z" fill="white"/>
<defs>
<linearGradient id="paint0_linear_150_2822" x1="19.1933" y1="-5.82133" x2="31.7507" y2="72.0933" gradientUnits="userSpaceOnUse">
<stop stop-color="#F44F5A"/>
<stop offset="0.0001" stop-color="#4C4C4C"/>
<stop offset="1" stop-color="#343434"/>
</linearGradient>
</defs>
</svg>
