<svg width="35" height="35" viewBox="0 0 35 35" fill="none" xmlns="http://www.w3.org/2000/svg">
<rect width="35" height="35" rx="5" fill="#3BB493"/>
<g clip-path="url(#clip0_120_2620)">
<path d="M17.8861 5C18.8988 6.66017 17.5639 8.857 16.4972 10.0843C15.4627 11.2743 14.2049 12.2695 13.0623 13.351C11.8356 14.513 10.6561 15.7357 9.64803 17.0995C7.6308 19.8283 6.39491 23.2595 7.30284 26.665C8.20962 30.067 11.1164 32.2323 14.3994 32.9988C12.7423 32.2732 11.1935 30.4287 11.1889 28.5422C11.1854 26.483 12.4719 24.7365 14.0714 23.5885C13.8793 24.3258 13.7746 25.0002 14.2498 25.6582C14.4704 25.9592 14.7715 26.1898 15.1174 26.3226C15.4633 26.4553 15.8396 26.4847 16.2014 26.4072C17.9126 26.0268 17.992 24.1205 16.977 23.0075C15.9736 21.9073 15.0035 20.6637 15.3844 19.0677C15.5766 18.2685 16.0611 17.5183 16.6744 16.9828C16.2026 18.2405 17.5432 19.4795 18.427 20.0978C19.9597 21.1688 21.641 21.9785 23.0494 23.2338C24.5316 24.5545 25.6271 26.3383 25.405 28.408C25.1656 30.6515 23.4073 32.2113 21.435 33C25.6029 32.0667 29.9101 28.7883 29.9964 24.1018C30.1034 20.5645 27.8066 17.432 24.0609 15.4872C24.2796 16.0472 24.1461 16.3003 23.9942 16.5652C23.3613 17.6665 21.5984 17.9092 20.7319 16.7798C19.3452 14.9738 20.7606 13.0278 20.9586 11.1157C21.206 8.71817 19.7238 6.39183 17.8861 5V5Z" fill="white"/>
</g>
<defs>
<clipPath id="clip0_120_2620">
<rect x="5" y="5" width="25" height="25" rx="5" fill="white"/>
</clipPath>
</defs>
</svg>
