<svg width="35" height="35" viewBox="0 0 35 35" fill="none" xmlns="http://www.w3.org/2000/svg">
<rect width="35" height="35" rx="5" fill="#3BB493"/>
<g clip-path="url(#clip0_120_2576)">
<path d="M6.59929 11.1196C4.38601 14.2977 4.66257 18.4274 6.35085 21.8008C6.39147 21.886 6.4321 21.9633 6.47272 22.0407C6.49694 22.0938 6.52585 22.1461 6.55397 22.1954C6.56647 22.2235 6.58679 22.2563 6.60319 22.2805C6.63132 22.3375 6.66022 22.386 6.68835 22.4391L6.85085 22.7157C6.87897 22.7688 6.91179 22.8172 6.9446 22.8665C7.00163 22.9641 7.07038 23.0618 7.12741 23.1594C7.15554 23.2 7.18054 23.2407 7.20866 23.2813C7.31022 23.4399 7.42038 23.5946 7.53444 23.7454C7.61569 23.8555 7.69694 23.9649 7.78288 24.075C7.81101 24.1118 7.84382 24.1524 7.87272 24.193L8.10476 24.4735C8.13288 24.5063 8.15788 24.543 8.18991 24.575C8.29147 24.6969 8.40163 24.8196 8.5071 24.9375C8.5071 24.9415 8.51101 24.9415 8.51101 24.9454C8.64538 25.1125 8.79147 25.2665 8.95476 25.4055C9.03991 25.4907 9.12194 25.5766 9.21101 25.6579L9.31647 25.7594C9.43054 25.8696 9.5446 25.975 9.66647 26.0805C9.67038 26.0805 9.67038 26.0805 9.67429 26.0844L9.73132 26.1336C9.83679 26.2274 9.94694 26.3211 10.0571 26.4063L10.1876 26.5165C10.2727 26.586 10.3665 26.6547 10.4563 26.7243L10.5985 26.8344C10.6962 26.9079 10.7977 26.9766 10.8954 27.05C10.9321 27.0743 10.9688 27.1032 11.0094 27.1235L11.0376 27.1477L11.3305 27.343L11.4563 27.4243C11.6071 27.5219 11.7618 27.6157 11.9118 27.7094C11.9563 27.7297 11.9969 27.754 12.0376 27.779C12.1516 27.8438 12.2696 27.9094 12.3837 27.9704C12.4446 28.0071 12.5094 28.0352 12.5751 28.068C12.6524 28.1125 12.7337 28.1532 12.8149 28.1985C12.8352 28.2024 12.8555 28.211 12.8758 28.2227C12.9087 28.2391 12.9407 28.2555 12.9735 28.2719C13.0993 28.3329 13.2298 28.3938 13.3641 28.4508C13.3883 28.4633 13.4173 28.4711 13.4454 28.4875C13.5962 28.5524 13.7423 28.618 13.9008 28.679C13.9337 28.6868 13.9704 28.7071 14.0063 28.7196C14.1485 28.7727 14.2954 28.825 14.4376 28.8782L14.4868 28.8946C14.6493 28.9516 14.804 29 14.9673 29.0532C15.004 29.061 15.0446 29.0774 15.0813 29.086C15.2485 29.1391 15.4071 29.1961 15.5735 29.2282C26.2626 31.1774 29.3673 22.8032 29.3673 22.8032C26.7587 26.2008 22.1282 27.0961 17.7423 26.0993C17.5798 26.0625 17.4212 26.0094 17.254 25.961C17.0587 25.904 16.8594 25.8391 16.6641 25.7735L16.5993 25.7493C16.461 25.7 16.3227 25.6477 16.1844 25.5946C16.1477 25.5782 16.1071 25.5665 16.0704 25.55C15.9157 25.4891 15.7696 25.4282 15.6188 25.3625C15.586 25.35 15.5618 25.3344 15.529 25.3219C15.4032 25.2649 15.2766 25.2079 15.1508 25.1469C15.1141 25.1305 15.0774 25.1102 15.0407 25.0899C14.943 25.0454 14.8454 24.9922 14.7477 24.943C14.6829 24.9102 14.6173 24.8782 14.5563 24.8454C14.4383 24.7805 14.3204 24.7149 14.2024 24.65C14.1657 24.6258 14.1251 24.6008 14.0844 24.5805C13.9298 24.4868 13.779 24.393 13.629 24.3C13.5883 24.2758 13.5477 24.2469 13.5071 24.2188C13.3969 24.1493 13.2876 24.0766 13.1813 24.0032C13.1446 23.979 13.1118 23.954 13.0758 23.9258C12.9704 23.8563 12.868 23.7836 12.7665 23.7063C12.7219 23.6696 12.6766 23.6368 12.6282 23.6008C12.5383 23.5313 12.4454 23.4625 12.3555 23.3852L12.2298 23.2875C12.1118 23.1938 11.9977 23.0961 11.8837 22.9946C11.8712 22.9821 11.8594 22.9743 11.843 22.9618L11.4852 22.636L11.3798 22.5383C11.2946 22.4485 11.2087 22.3672 11.1196 22.2821L11.018 22.1766C10.9079 22.0665 10.8024 21.9571 10.6969 21.8391L10.6805 21.8227C10.5704 21.7047 10.4649 21.5782 10.3548 21.4563C10.3266 21.4235 10.3016 21.3868 10.2735 21.3547L10.0376 21.0657C9.91569 20.911 9.79772 20.7563 9.68366 20.5977C7.25007 17.2774 6.37116 12.6954 8.31647 8.93599L6.59929 11.1196ZM13.4594 8.44224C11.8563 10.7454 11.9454 13.8211 13.1946 16.2547C13.4024 16.6618 13.6383 17.0563 13.8985 17.4344C14.1383 17.7766 14.4032 18.1829 14.7243 18.4602C14.8344 18.586 14.9563 18.7086 15.0821 18.8344L15.1758 18.9282C15.2938 19.0422 15.4157 19.1563 15.5423 19.2657L15.5587 19.2821C15.6969 19.404 15.8391 19.5219 15.9899 19.636C16.0227 19.6602 16.0548 19.6891 16.0876 19.7133C16.2344 19.8235 16.3805 19.9329 16.5313 20.0391L16.5477 20.0516C16.6126 20.0961 16.6821 20.1415 16.7555 20.186C16.7837 20.2063 16.8165 20.2305 16.8493 20.2469C16.9594 20.3204 17.0688 20.3852 17.179 20.4547C17.1993 20.4625 17.2118 20.4711 17.2282 20.479C17.3219 20.536 17.4274 20.5891 17.5251 20.6415C17.5579 20.6618 17.5899 20.6782 17.6266 20.6985C17.6962 20.7313 17.7649 20.768 17.8298 20.804L17.8665 20.8165C18.0048 20.886 18.1469 20.9508 18.2899 21.0157C18.3266 21.0282 18.3548 21.0399 18.3876 21.0563C18.5016 21.1055 18.6196 21.154 18.7337 21.1985C18.7868 21.2149 18.8352 21.2352 18.8844 21.2516C18.9899 21.2922 19.104 21.329 19.2102 21.3657L19.3524 21.4102C19.5071 21.4594 19.6618 21.5204 19.8204 21.5446C28.0727 22.9118 29.9805 16.5602 29.9805 16.5602C28.2594 19.0344 24.9352 20.2141 21.3868 19.2946C21.2282 19.254 21.0735 19.2047 20.9188 19.1563C20.8696 19.1438 20.8251 19.1282 20.7766 19.1157C20.6712 19.075 20.5571 19.0383 20.4555 19.0016L20.3048 18.9446C20.1868 18.8954 20.0688 18.8547 19.9548 18.8024C19.918 18.786 19.8852 18.7782 19.861 18.7618C19.7141 18.6969 19.568 18.6313 19.4258 18.5625L19.2102 18.4485L19.0883 18.3875C18.9907 18.3383 18.9008 18.286 18.8118 18.2329C18.7876 18.2204 18.7673 18.2086 18.7469 18.1961C18.6368 18.1266 18.5235 18.0618 18.4173 17.9883C18.3805 17.968 18.3477 17.9477 18.3157 17.9235L18.1001 17.7852C17.9493 17.6797 17.8032 17.5657 17.6524 17.4594C17.6196 17.4266 17.5876 17.4024 17.5548 17.3782C15.9962 16.1493 14.7673 14.4727 14.1813 12.5766C13.5673 10.6032 13.7055 8.38989 14.7633 6.59536L13.4594 8.44224ZM19.2298 6.44067C18.286 7.82817 18.1923 9.55317 18.843 11.0836C19.5344 12.7071 20.9508 13.9852 22.5985 14.5868C22.668 14.6149 22.7329 14.636 22.8016 14.6602L22.8915 14.6883C22.9891 14.7165 23.0868 14.7532 23.1844 14.7782C27.7415 15.6571 28.9743 12.4344 29.3087 11.9625C28.2219 13.5211 26.4032 13.8954 24.1696 13.354C23.9907 13.3047 23.8118 13.2524 23.6321 13.1868C23.4165 13.1094 23.2008 13.0196 22.9891 12.9219C22.5946 12.7266 22.2157 12.4985 21.8657 12.2344C19.8633 10.7165 18.6266 7.82739 19.9329 5.47192L19.2298 6.44067Z" fill="white"/>
</g>
<defs>
<clipPath id="clip0_120_2576">
<rect x="5" y="5" width="25" height="25" rx="5" fill="white"/>
</clipPath>
</defs>
</svg>
