<svg width="35" height="35" viewBox="0 0 35 35" fill="none" xmlns="http://www.w3.org/2000/svg">
<rect width="35" height="35" rx="5" fill="#3BB493"/>
<path d="M18.023 29.3125L17.3894 29.1024C17.3894 29.1024 17.4737 25.8961 16.3136 25.6708C15.5542 24.7866 16.4258 -12.0794 19.2017 25.5451C18.6751 25.8123 18.2721 26.2727 18.077 26.8302C17.9725 27.6534 17.9544 28.4854 18.023 29.3125Z" fill="white"/>
<path d="M18.3657 26.2151C20.0528 24.9451 21.3449 23.2223 22.0917 21.247C22.8385 19.2718 23.0094 17.1251 22.5844 15.0566C21.3441 9.58483 18.407 7.78596 18.0906 7.09915C17.8176 6.67147 17.5846 6.21956 17.3945 5.74915L17.6283 20.9949C17.6283 20.9949 17.1439 25.6541 18.3657 26.2151Z" fill="white"/>
<path d="M17.0671 26.4176C17.0671 26.4176 11.9025 22.9 12.2012 16.6773C12.2291 14.8014 12.6592 12.9533 13.4625 11.2578C14.2659 9.56231 15.4237 8.05898 16.8579 6.84934C17.0254 6.70696 17.1586 6.52845 17.2473 6.32722C17.336 6.12599 17.378 5.90727 17.37 5.6875C17.6915 6.37938 17.6392 16.0175 17.6729 17.1448C17.8037 21.5298 17.4291 25.5899 17.0671 26.4176Z" fill="white"/>
</svg>
