<svg width="35" height="35" viewBox="0 0 35 35" fill="none" xmlns="http://www.w3.org/2000/svg">
<rect width="35" height="35" rx="5" fill="#3BB493"/>
<path d="M23.1392 10.6219C23.005 10.6219 22.914 10.6383 22.8195 10.6604V10.6756H22.8358C22.8988 10.7969 23.0062 10.8856 23.0855 10.9941C23.1485 11.1189 23.2022 11.2438 23.2652 11.3674L23.2815 11.3499C23.3912 11.2729 23.4448 11.1493 23.4448 10.9614C23.3982 10.9066 23.3912 10.8518 23.3515 10.7981C23.3048 10.7199 23.2045 10.6814 23.1415 10.6196L23.1392 10.6219ZM10.7317 26.0149H9.65017C9.61517 24.1926 9.50667 22.4799 9.33517 20.8699H9.32583L7.68083 26.0149H6.85833L5.225 20.8699H5.21333C5.09317 22.4134 5.01733 24.1284 4.98583 26.0149H4C4.06417 23.7213 4.224 21.5699 4.47833 19.5633H5.82L7.3775 24.3046H7.38683L8.95833 19.5633H10.2358C10.5182 21.9141 10.6838 24.0666 10.7352 26.0149H10.7317ZM15.4182 21.2549C14.9772 23.6408 14.3962 25.3768 13.6775 26.4583C13.1152 27.2936 12.4992 27.7101 11.8307 27.7101C11.6522 27.7101 11.434 27.6564 11.1703 27.5491V26.9728C11.2987 26.9926 11.4503 27.0031 11.6207 27.0031C11.9333 27.0031 12.1842 26.9156 12.3755 26.7441C12.6053 26.5341 12.7197 26.2984 12.7197 26.0383C12.7197 25.8574 12.6298 25.4899 12.4513 24.9369L11.2683 21.2549H12.33L13.1782 24.0083C13.3695 24.6336 13.45 25.0699 13.4173 25.3184C13.884 24.0771 14.2083 22.7203 14.3915 21.2549H15.4182ZM29.7973 26.0149H26.729V19.5633H27.7615V25.2216H29.7973V26.0149ZM25.924 26.1724L24.7387 25.5891C24.8437 25.5004 24.9452 25.4048 25.0362 25.2974C25.5413 24.7071 25.7922 23.8298 25.7922 22.6689C25.7922 20.5339 24.9545 19.4653 23.278 19.4653C22.4567 19.4653 21.815 19.7359 21.353 20.2784C20.8513 20.8711 20.5993 21.7438 20.5993 22.8976C20.5993 24.0316 20.821 24.8646 21.269 25.3943C21.6773 25.8726 22.2922 26.1118 23.1158 26.1118C23.4238 26.1118 23.7062 26.0733 23.9617 25.9974L25.5075 26.8981L25.9275 26.1724H25.924ZM22.0833 24.7234C21.8208 24.3034 21.6902 23.6268 21.6902 22.6981C21.6902 21.0729 22.1848 20.2598 23.1718 20.2598C23.6887 20.2598 24.0702 20.4546 24.3117 20.8431C24.573 21.2654 24.7037 21.9351 24.7037 22.8533C24.7037 24.4913 24.209 25.3126 23.222 25.3126C22.7028 25.3126 22.3237 25.1178 22.081 24.7293L22.0833 24.7234ZM20.149 24.2276C20.149 24.7759 19.9483 25.2263 19.547 25.5763C19.1457 25.9263 18.6102 26.1013 17.9323 26.1013C17.2988 26.1013 16.691 25.9006 16.0972 25.5004L16.3737 24.9451C16.8847 25.2018 17.3455 25.3278 17.762 25.3278C18.1493 25.3278 18.4538 25.2426 18.6755 25.0711C18.8948 24.8996 19.0255 24.6581 19.0255 24.3536C19.0255 23.9686 18.7572 23.6419 18.2695 23.3678C17.8168 23.1193 16.9127 22.6013 16.9127 22.6013C16.4203 22.2431 16.1753 21.8593 16.1753 21.2281C16.1753 20.7031 16.3585 20.2831 16.7237 19.9623C17.0912 19.6379 17.5637 19.4781 18.147 19.4781C18.7443 19.4781 19.2903 19.6368 19.7803 19.9564L19.5318 20.5118C19.1118 20.3344 18.6977 20.2434 18.2905 20.2434C17.9603 20.2434 17.7048 20.3228 17.5275 20.4838C17.349 20.6424 17.2382 20.8454 17.2382 21.0951C17.2382 21.4778 17.5112 21.8068 18.0152 22.0868C18.4737 22.3376 19.4 22.8684 19.4 22.8684C19.9052 23.2243 20.156 23.6034 20.156 24.2311L20.149 24.2276ZM31.0947 17.4003C30.4705 17.3839 29.9863 17.4469 29.5815 17.6196C29.4648 17.6663 29.2782 17.6663 29.2618 17.8144C29.326 17.8763 29.3353 17.9778 29.3902 18.0641C29.4835 18.2204 29.6445 18.4293 29.7938 18.5389C29.9572 18.6673 30.1205 18.7909 30.292 18.9006C30.5953 19.0873 30.9395 19.1981 31.237 19.3859C31.4062 19.4956 31.5788 19.6344 31.7503 19.7511C31.8355 19.8094 31.8903 19.9144 32 19.9518V19.9284C31.9463 19.8584 31.93 19.7569 31.8775 19.6788C31.7993 19.6006 31.7212 19.5306 31.6442 19.4536C31.4178 19.1503 31.1367 18.8854 30.8333 18.6661C30.5837 18.4958 30.0377 18.2578 29.935 17.9719L29.9198 17.9556C30.0902 17.9404 30.2932 17.8786 30.4565 17.8319C30.7213 17.7619 30.964 17.7771 31.2382 17.7083C31.3618 17.6768 31.4867 17.6383 31.6115 17.5986V17.5286C31.4715 17.3886 31.3665 17.1984 31.2218 17.0678C30.8252 16.7236 30.3853 16.3888 29.9338 16.1076C29.6888 15.9513 29.3785 15.8509 29.1207 15.7179C29.0273 15.6713 28.871 15.6479 28.8173 15.5698C28.6773 15.3994 28.5957 15.1731 28.4965 14.9701C28.2725 14.5408 28.0532 14.0659 27.8583 13.6133C27.7183 13.3076 27.6332 13.0031 27.4617 12.7231C26.6567 11.3966 25.7852 10.5928 24.4447 9.80644C24.1565 9.64311 23.8112 9.57311 23.446 9.48678C23.2512 9.47744 23.0563 9.46344 22.8627 9.45528C22.7343 9.40044 22.6107 9.25228 22.501 9.18111C22.0577 8.90111 20.9097 8.29444 20.583 9.09711C20.373 9.60344 20.8945 10.1028 21.0753 10.3594C21.2095 10.5379 21.3787 10.7421 21.472 10.9428C21.5268 11.0781 21.542 11.2169 21.5968 11.3581C21.7205 11.7011 21.8383 12.0838 22.0017 12.4046C22.0868 12.5679 22.1802 12.7394 22.2898 12.8864C22.3528 12.9716 22.4602 13.0113 22.4847 13.1513C22.375 13.3099 22.368 13.5409 22.305 13.7346C22.025 14.6178 22.1347 15.7098 22.5313 16.3596C22.6562 16.5533 22.9537 16.9826 23.3515 16.8181C23.7015 16.6781 23.6245 16.2348 23.7248 15.8439C23.7482 15.7506 23.733 15.6888 23.7808 15.6258V15.6433C23.8905 15.8626 24.0002 16.0714 24.1005 16.2908C24.3408 16.6734 24.7608 17.0701 25.112 17.3349C25.2987 17.4749 25.4468 17.7176 25.6802 17.8039V17.7806H25.6627C25.6125 17.7129 25.546 17.6803 25.483 17.6254C25.343 17.4854 25.1855 17.3139 25.0747 17.1588C24.748 16.7189 24.4598 16.2371 24.2032 15.7378C24.0748 15.4928 23.9675 15.2291 23.8648 14.9876C23.8182 14.8943 23.8182 14.7543 23.74 14.7076C23.6233 14.8779 23.4518 15.0261 23.3667 15.2361C23.2185 15.5721 23.2033 15.9851 23.1473 16.4144C23.1158 16.4226 23.131 16.4144 23.1158 16.4308C22.8662 16.3701 22.781 16.1111 22.6877 15.8941C22.4543 15.3399 22.4158 14.4498 22.6177 13.8116C22.6725 13.6483 22.9058 13.1326 22.8125 12.9763C22.7635 12.8281 22.6095 12.7429 22.5243 12.6228C22.4228 12.4781 22.3143 12.2903 22.2443 12.1246C22.0577 11.6883 21.9643 11.2053 21.7613 10.7689C21.668 10.5671 21.5047 10.3559 21.3717 10.1704C21.2235 9.96044 21.0602 9.81228 20.9423 9.56378C20.9038 9.47861 20.849 9.33744 20.9108 9.24411C20.9272 9.18111 20.9598 9.15661 21.0205 9.13911C21.1232 9.05511 21.4113 9.16478 21.5128 9.21144C21.801 9.32811 22.0437 9.43778 22.2852 9.60111C22.3948 9.67811 22.5127 9.82628 22.6527 9.86478H22.816C23.0657 9.91961 23.3468 9.88111 23.5802 9.94994C23.9943 10.0829 24.3677 10.2766 24.7025 10.4866C25.7245 11.1353 26.5645 12.0558 27.135 13.1536C27.2283 13.3333 27.2692 13.4978 27.3543 13.6844C27.5177 14.0694 27.7195 14.4579 27.8852 14.8301C28.0485 15.1976 28.206 15.5721 28.4405 15.8766C28.5572 16.0399 29.0262 16.1251 29.2362 16.2103C29.3913 16.2803 29.6328 16.3444 29.7728 16.4296C30.0412 16.5929 30.3025 16.7796 30.5545 16.9593C30.6828 17.0479 31.0713 17.2428 31.0947 17.4003Z" fill="white"/>
</svg>
