<svg width="35" height="35" viewBox="0 0 35 35" fill="none" xmlns="http://www.w3.org/2000/svg">
<rect width="35" height="35" rx="5" fill="#3BB493"/>
<path d="M17.5 26.559C27.165 26.559 35 22.4805 35 17.4494C35 12.4183 27.165 8.33984 17.5 8.33984C7.83502 8.33984 0 12.4183 0 17.4494C0 22.4805 7.83502 26.559 17.5 26.559Z" fill="#3BB493"/>
<path fill-rule="evenodd" clip-rule="evenodd" d="M4.91431 22.8432L6.8322 13.1343H11.2669C13.1847 13.2542 14.1436 14.213 14.1436 15.8912C14.1436 18.7679 11.8663 20.446 9.82853 20.3261H7.67124L7.19177 22.8432H4.91431ZM8.15058 18.5283L8.74995 14.9323H10.3081C11.1472 14.9323 11.7464 15.2919 11.7464 16.011C11.6267 18.0488 10.6677 18.4084 9.58899 18.5283H8.15071H8.15058ZM13.6981 20.3261L15.6158 10.6173H17.8933L17.4138 13.1343H19.5712C21.4891 13.2542 22.2083 14.213 21.9686 15.4118L21.1296 20.3261H18.7323L19.5714 15.8912C19.6911 15.2919 19.6911 14.9323 18.8522 14.9323H17.0542L15.9755 20.3261H13.6981ZM20.976 22.8432L22.8938 13.1343H27.3287C29.2466 13.2542 30.2055 14.213 30.2055 15.8912C30.2055 18.7679 27.928 20.446 25.8904 20.3261H23.7328L23.2534 22.8432H20.976ZM24.2122 18.5283L24.8115 14.9323H26.3699C27.2089 14.9323 27.8081 15.2919 27.8081 16.011C27.6884 18.0488 26.7294 18.4084 25.6507 18.5283H24.2123H24.2122Z" fill="white"/>
</svg>
