<svg width="35" height="35" viewBox="0 0 35 35" fill="none" xmlns="http://www.w3.org/2000/svg">
<rect width="35" height="35" rx="5" fill="#3BB493"/>
<path d="M17.9949 20.2438C19.4736 20.2438 20.6724 19.045 20.6724 17.5663C20.6724 16.0876 19.4736 14.8888 17.9949 14.8888C16.5161 14.8888 15.3174 16.0876 15.3174 17.5663C15.3174 19.045 16.5161 20.2438 17.9949 20.2438Z" fill="white"/>
<path d="M17.9947 12.7614C21.4547 12.7614 24.7415 13.2492 27.2403 14.1095C30.0155 15.0649 31.7083 16.4774 31.7083 17.5657C31.7083 18.725 29.8801 20.23 26.9116 21.2136C24.5484 21.9966 21.3866 22.4233 17.9947 22.4233C14.4315 22.4233 11.234 22.0049 8.89816 21.2065C7.43584 20.7067 6.22821 20.0571 5.40047 19.3482C4.65666 18.7112 4.28114 18.0788 4.28114 17.5657C4.28114 16.4737 5.90917 15.0808 8.6245 14.1341C11.1243 13.2626 14.4916 12.7614 17.9947 12.7614ZM17.9947 11.4803C14.3555 11.4803 10.8472 12.0025 8.20274 12.9244C5.02768 14.0314 3 15.7662 3 17.5657C3 19.4243 5.17675 21.2884 8.4838 22.4188C10.9696 23.2684 14.3016 23.7045 17.9947 23.7045C21.5144 23.7045 24.8093 23.2598 27.3146 22.4297C30.7526 21.2906 32.9894 19.4491 32.9894 17.5657C32.9894 15.7597 30.8963 14.0132 27.6573 12.8981C25.0161 11.9888 21.5896 11.4803 17.9947 11.4803ZM13.8098 15.179C15.5383 12.1817 17.6029 9.57814 19.5964 7.84325C21.8104 5.91649 23.8797 5.1557 24.8225 5.69938C25.8268 6.27851 26.2173 8.61415 25.5863 11.6769C25.084 14.1153 23.8741 17.0675 22.1796 20.0058C20.3996 23.0925 18.4397 25.6534 16.5811 27.278C15.4176 28.295 14.2516 29.0167 13.224 29.3796C12.3006 29.7057 11.5652 29.7151 11.1206 29.4587C10.1747 28.9132 9.78141 26.807 10.3178 23.9819C10.8117 21.3811 12.0597 18.2138 13.8098 15.179L13.8098 15.179ZM12.7 14.539C10.8818 17.6917 9.58157 20.9916 9.05918 23.7429C8.43194 27.0464 8.92176 29.6695 10.4806 30.5685C12.0907 31.497 14.793 30.5426 17.4243 28.2425C19.4022 26.5136 21.4445 23.8451 23.2895 20.6458C25.0478 17.5968 26.3086 14.5203 26.8411 11.9354C27.5719 8.38818 27.0941 5.53043 25.4625 4.58956C23.898 3.68735 21.3394 4.62804 18.7554 6.87683C16.6482 8.71065 14.4959 11.4248 12.7 14.539L12.7 14.539ZM13.8138 20.0128C12.0803 17.0184 10.8557 13.9294 10.3483 11.3359C9.78469 8.4555 10.159 6.28276 11.1009 5.7375C12.1042 5.15665 14.3228 5.9848 16.6611 8.06105C18.5227 9.71399 20.4762 12.2365 22.1756 15.172C23.9608 18.2557 25.2007 21.2326 25.68 23.6542C25.9801 25.1702 26.023 26.5408 25.8242 27.6123C25.6456 28.5751 25.2864 29.2169 24.8423 29.474C23.8972 30.0211 21.8761 29.31 19.6964 27.4344C17.6898 25.7076 15.569 23.0446 13.8138 20.0128L13.8138 20.0128ZM12.705 20.6546C14.5285 23.8043 16.7381 26.5788 18.8608 28.4055C21.4095 30.5987 23.9268 31.4844 25.4842 30.5828C27.0927 29.6516 27.6154 26.8338 26.9368 23.4054C26.4267 20.8284 25.1347 17.7263 23.2843 14.5301C21.5209 11.484 19.4852 8.85532 17.5117 7.10304C14.8035 4.69838 12.089 3.6851 10.459 4.62875C8.89603 5.53357 8.43319 8.22008 9.09098 11.5819C9.62736 14.3233 10.904 17.5435 12.705 20.6546L12.705 20.6546Z" fill="white"/>
</svg>
