<svg width="35" height="35" viewBox="0 0 35 35" fill="none" xmlns="http://www.w3.org/2000/svg">
<rect width="35" height="35" rx="5" fill="#3BB493"/>
<path d="M16.9361 5.01716C15.7437 4.92744 14.403 5.18796 13.0915 5.83699C11.0074 6.86774 8.75332 8.48895 7.13247 10.601C5.20703 13.1147 4.89818 15.3024 5.02474 16.2176C5.45919 19.3477 8.46069 21.4286 9.82685 22.9773C9.90813 23.0695 9.88989 23.207 9.79391 23.2837V23.2837C9.14928 23.7299 6.75791 25.4829 6.14535 27.3688C5.45348 29.5073 6.25982 31.0379 6.7897 31.2472C8.4426 31.887 10.0783 30.7688 10.987 28.8793C11.8966 26.9886 11.787 24.521 11.3677 23.3965V23.3965C11.3606 23.3682 11.3655 23.34 11.3879 23.3214C11.5423 23.1931 11.6992 23.0642 11.8571 22.9361V22.9361C12.1541 22.6913 12.6125 22.983 12.562 23.3645C12.5162 23.711 12.4798 24.1016 12.4537 24.5522C12.3828 25.7646 12.7419 27.3332 13.2085 27.9514C13.4143 28.222 13.663 28.2286 13.8166 28.2286C14.3625 28.2286 14.6078 27.6002 14.8795 26.8497V26.8497C14.9436 26.6748 15.4895 26.7592 15.5262 26.9418C15.6179 27.3973 15.8037 27.747 16.1583 27.747C16.529 27.747 16.9006 27.0828 17.0672 26.7408C17.0674 26.7404 17.068 26.7406 17.068 26.741V26.741C17.068 26.7415 17.0687 26.7416 17.0688 26.7412C17.0711 26.7341 17.0783 26.7134 17.0943 26.6782C17.134 26.5952 17.1537 26.5466 17.1537 26.5466V26.5466C17.1537 26.5358 17.1557 26.5254 17.1599 26.5153C17.3128 26.1494 17.6399 25.3326 18.1276 23.9955C18.4382 23.1457 18.7421 22.193 18.9727 21.4372C19.0648 21.1355 19.5564 21.1672 19.6256 21.4749V21.4749C19.7163 21.9044 19.8906 22.368 20.0528 22.8283C20.1203 23.0198 20.1034 23.2306 20.0071 23.4093C19.9549 23.5059 19.9227 23.564 19.9155 23.5769C19.9145 23.5788 19.9139 23.5812 19.9144 23.5833V23.5833C19.9157 23.5889 19.917 23.595 19.9143 23.6C19.7964 23.8177 19.6633 24.0506 19.5267 24.2797C19.0204 25.1181 18.4186 26.0786 18.3402 26.354C18.2448 26.6787 18.2692 26.9204 18.4506 27.1081C18.5847 27.2512 18.8238 27.2731 19.0719 27.2467C19.5266 27.2022 19.8469 27.0469 20.0013 26.9483C20.2857 26.8064 20.5542 26.6111 20.7989 26.3657C21.2934 25.8582 21.5947 25.1303 21.5669 24.1717C21.554 23.746 21.4713 23.3195 21.3613 22.911C21.3101 22.7211 21.3299 22.5205 21.412 22.3417V22.3417C21.749 21.6563 22.053 20.942 22.2899 20.3507C22.4217 20.0219 22.9674 20.077 23.0451 20.4225V20.4225V20.4225C23.2369 21.3204 23.0864 22.2504 22.6453 23.0556C22.3979 23.5074 22.2308 23.9352 22.1469 24.2703C21.8542 25.4442 22.0849 25.9718 22.5161 26.0932C22.7101 26.1486 22.9859 26.0232 23.1917 25.903C23.4972 25.761 23.7847 25.5545 24.0454 25.2899C24.5398 24.7823 25.0184 24.0721 24.9864 23.1075V23.1075C24.9654 22.335 25.2396 21.5009 26.0053 21.3964C26.3729 21.3463 26.7798 21.3489 27.2292 21.4209C29.4314 21.7793 29.8629 23.6972 29.7802 24.4959C29.6976 25.2957 29.2343 25.7425 29.0799 25.8748C28.9255 26.0071 28.8785 26.0568 28.8903 26.1567C28.9098 26.2998 28.9804 26.2937 29.1112 26.26C29.2934 26.2155 30.2654 25.61 30.3092 24.1271C30.3725 22.2541 29.0811 20.194 26.7925 20.2088H26.7892C26.554 20.209 26.3197 20.2314 26.088 20.2755C25.2247 20.44 24.0635 20.1702 23.9844 19.295V19.295C23.9372 18.7934 23.8867 18.4961 23.9416 17.9019C23.9972 17.3066 24.2457 16.4622 24.2415 16.4009C24.2373 16.3407 24.1859 16.0381 23.6762 16.0321C23.1666 16.0261 22.7266 16.1698 22.6759 16.3562C22.5856 16.699 22.5156 17.0502 22.4666 17.4086C22.4002 17.8785 21.8886 19.2304 21.4126 20.3941C21.2386 20.8193 20.613 20.8047 20.5698 20.3474V20.3474C20.5226 19.8458 20.4705 19.5485 20.5254 18.9543C20.581 18.359 20.8311 17.5146 20.8269 17.4533C20.8227 17.3931 20.7713 17.0905 20.2617 17.0845C19.7521 17.0784 19.3112 17.2222 19.2597 17.4086C19.2083 17.5963 19.1525 18.0365 19.0504 18.461C18.9475 18.8856 17.71 22.7236 17.386 23.7207C17.2198 24.2282 17.077 24.6362 16.974 24.9117C16.958 24.9562 16.947 24.984 16.9394 25.0056V25.0056C16.9533 24.9731 16.9529 24.9781 16.9407 25.0113C16.8729 25.1951 16.8303 25.3052 16.8222 25.3261C16.8214 25.3282 16.8208 25.3316 16.8208 25.3338V25.3338C16.8208 25.3342 16.8207 25.3347 16.8205 25.3352C16.7531 25.5117 16.6782 25.6728 16.6428 25.6728C16.6192 25.6728 16.5674 25.2096 16.6543 24.5757C16.8399 23.2419 17.2798 21.1689 17.2756 21.0967C17.2714 21.0582 17.3568 20.6995 16.9856 20.5071C16.6253 20.3255 16.4969 20.6292 16.4648 20.6292V20.6292C16.461 20.6292 16.4265 20.6172 16.427 20.6134C16.4899 20.1272 16.6425 18.4023 15.6408 18.4023C15.1539 18.4023 14.5397 18.9001 14.0376 19.5314C13.5546 20.1386 13.0809 20.7673 12.4639 21.2379C12.2261 21.4192 11.9667 21.6175 11.7022 21.8202C11.4566 22.0088 11.205 22.2018 10.9638 22.3869C10.9207 22.4199 10.8609 22.409 10.8288 22.3652V22.3652C9.41301 20.2592 6.79947 18.7704 6.91 15.9428C6.94965 14.9121 7.20787 12.2072 11.9362 8.92135C15.8124 6.23203 18.9111 6.96954 19.4443 8.61127C20.2113 10.9542 17.7869 15.315 13.7622 15.9428C12.2282 16.1797 11.5216 15.2559 11.3199 14.9468C11.1107 14.622 11.0779 14.6048 10.9986 14.6649C10.8678 14.7635 10.9513 15.0508 10.9986 15.2216C11.1175 15.657 11.6462 16.339 12.4883 16.7251C13.2283 17.0618 14.9274 17.3445 17.1026 16.1707C19.5461 14.8585 21.4127 11.294 20.8549 8.23542C20.5 6.29224 18.9236 5.16668 16.9361 5.01716ZM15.6392 19.7812C15.701 19.7877 15.7469 19.8203 15.7727 19.8822C15.911 20.2082 15.2919 22.6075 15.1333 23.1475C14.8801 24.0135 14.3457 26.2193 14.0209 26.1026C13.7441 26.004 13.5734 24.322 13.9649 22.6683C14.1623 21.836 14.5819 20.8438 14.8317 20.4578C15.131 19.9905 15.4537 19.7617 15.6392 19.7812ZM23.5106 22.9936C23.6392 22.7831 23.9275 22.8515 23.9317 23.0981V23.0981C23.9301 23.5482 23.8455 23.8958 23.7201 24.1653C23.421 24.8075 22.8828 24.5251 23.1044 23.8522V23.8522C23.174 23.64 23.3055 23.3294 23.5106 22.9936ZM10.465 23.9578C10.5118 23.9159 10.5882 23.9447 10.599 24.0065C10.8839 25.6252 10.5645 27.0541 9.81863 28.1863C9.09132 29.294 8.07055 29.7132 7.6318 29.3608C7.16099 28.9796 7.34709 27.3472 8.24484 26.1661C8.79074 25.4492 9.49541 24.7885 9.962 24.3808C10.0692 24.293 10.222 24.1602 10.4119 24.0002C10.4325 23.9824 10.4463 23.972 10.4536 23.9668C10.4576 23.9639 10.4614 23.9611 10.465 23.9578V23.9578ZM20.4673 24.1396C20.4788 24.1188 20.5155 24.1268 20.5155 24.1505V24.1505C20.5104 25.1349 19.8315 25.8003 19.5219 26.0659C19.5212 26.0664 19.5217 26.0674 19.5225 26.0674V26.0674C19.523 26.0674 19.5234 26.0678 19.5234 26.0683V26.069C19.5234 26.0695 19.5232 26.0699 19.5228 26.0702C19.4158 26.1469 19.3168 26.1951 19.2696 26.1567V26.1567C19.1918 26.0959 19.3413 25.9844 19.3958 25.9021C19.5571 25.6583 19.9152 25.1129 20.0804 24.8271C20.1953 24.6272 20.3261 24.3949 20.4673 24.1396Z" fill="white"/>
</svg>
