<svg width="35" height="35" viewBox="0 0 35 35" fill="none" xmlns="http://www.w3.org/2000/svg">
<rect width="35" height="35" rx="5" fill="#3BB493"/>
<path d="M17 9.57812C13.2667 9.57812 10.9333 11.4448 10 15.1781C11.4 13.3115 13.0333 12.6115 14.9 13.0781C15.965 13.3444 16.7263 14.117 17.5689 14.9723C18.9415 16.3656 20.5301 17.9781 24 17.9781C27.7333 17.9781 30.0667 16.1115 31 12.3781C29.6 14.2448 27.9667 14.9448 26.1 14.4781C25.035 14.2119 24.2737 13.4392 23.4311 12.5839C22.0585 11.1907 20.4699 9.57812 17 9.57812ZM10 17.9781C6.26667 17.9781 3.93333 19.8448 3 23.5781C4.4 21.7115 6.03333 21.0115 7.9 21.4781C8.96504 21.7444 9.72627 22.517 10.5689 23.3723C11.9415 24.7656 13.5301 26.3781 17 26.3781C20.7333 26.3781 23.0667 24.5115 24 20.7781C22.6 22.6448 20.9667 23.3448 19.1 22.8781C18.035 22.6119 17.2737 21.8392 16.4311 20.9839C15.0585 19.5907 13.4699 17.9781 10 17.9781Z" fill="white"/>
</svg>
