<svg width="35" height="35" viewBox="0 0 35 35" fill="none" xmlns="http://www.w3.org/2000/svg">
<rect width="35" height="35" rx="5" fill="#3BB493"/>
<path d="M8 17.6339V19.0602H12.55V32.0102H15.7788V19.0602H20.3288V17.6602C20.3288 16.8727 20.3287 16.2339 20.2937 16.2164C20.2937 16.1902 17.52 16.1814 14.1513 16.1814L8.02625 16.2077V17.6427L8 17.6339ZM28.4487 16.1727C29.3412 16.3827 30.0238 16.7852 30.6363 17.4239C30.96 17.7739 31.4412 18.3864 31.4762 18.5439C31.4762 18.5964 29.9625 19.6202 29.0438 20.1889C29.0088 20.2152 28.8687 20.0664 28.7288 19.8389C28.2738 19.1914 27.81 18.9114 27.0837 18.8589C26.0337 18.7889 25.3337 19.3402 25.3337 20.2589C25.3337 20.5389 25.3863 20.6964 25.4913 20.9239C25.7275 21.4052 26.165 21.6939 27.5212 22.2889C30.0237 23.3652 31.1087 24.0739 31.765 25.0889C32.5087 26.2264 32.675 28.0114 32.1762 29.3502C31.6162 30.8114 30.2513 31.8002 28.3 32.1239C27.6875 32.2289 26.2875 32.2114 25.6313 32.0977C24.2313 31.8352 22.8925 31.1352 22.07 30.2339C21.7463 29.8839 21.125 28.9477 21.16 28.8864L21.4925 28.6764L22.805 27.9152L23.7938 27.3377L24.0212 27.6439C24.31 28.0989 24.9575 28.7114 25.3337 28.9214C26.4712 29.5077 27.9937 29.4289 28.7462 28.7464C29.07 28.4489 29.21 28.1339 29.21 27.6964C29.21 27.2939 29.1488 27.1102 28.9475 26.8039C28.6675 26.4189 28.1075 26.1039 26.5325 25.4039C24.7213 24.6339 23.9512 24.1439 23.2337 23.3914C22.8225 22.9364 22.4462 22.2277 22.2713 21.6414C22.14 21.1339 22.0962 19.8914 22.2188 19.3927C22.595 17.6427 23.9163 16.4177 25.8063 16.0677C26.4188 15.9452 27.8625 15.9977 28.4663 16.1552L28.4487 16.1727Z" fill="white"/>
</svg>
